<svg xmlns="http://www.w3.org/2000/svg" viewBox="0 0 568.47 406.48"><defs><style>.cls-1{isolation:isolate;}.cls-2{fill:#fff5fb;}.cls-3{fill:#d1d1d1;opacity:0.3;mix-blend-mode:multiply;}.cls-4{fill:#903b0d;}</style></defs><title>logo_illustration_UI</title><g class="cls-1"><g id="Calque_1" data-name="Calque 1"><path class="cls-2" d="M152.06,59.59a18.19,18.19,0,0,0-10,3A42.61,42.61,0,0,0,59,43.47,28.58,28.58,0,1,0,43.77,96.23H152.06a18.32,18.32,0,0,0,0-36.64Z"/><path class="cls-3" d="M170.38,77.91a18.12,18.12,0,0,1-1.39,7l-.23.54,0,.08c-.09.2-.19.4-.29.6-.19.38-.4.76-.62,1.13l-.4.65-.35.51-.32.45c-.18.24-.36.47-.55.69l-.36.43-.44.48c-.32.35-.67.68-1,1l-.43.38-.33.27a2.43,2.43,0,0,1-.25.2c-.47.37-1,.71-1.45,1l-.25.16-.44.27-.53.29c-.23.13-.46.24-.7.36l-.56.26-.62.26-.73.27-.55.18-.54.16-.34.09-.53.13c-.37.09-.75.16-1.14.22s-.59.09-.89.12l-.53,0-.14,0-.64,0h0l-.7,0H43.77A28.63,28.63,0,0,1,15.18,67.64c0-.33,0-.66,0-1s0-.65.05-1,0-.59.07-.89l0-.28c0-.21.05-.43.08-.64s0-.22,0-.33,0-.32.08-.47,0-.29.07-.44.09-.5.14-.75.05-.23.08-.35.07-.33.11-.5l.05-.22c.05-.21.11-.41.17-.62.15-.6.34-1.18.53-1.75,0-.13.09-.26.14-.39s.16-.46.25-.69.23-.57.34-.84a0,0,0,0,0,0,0c.12-.28.25-.57.38-.85s.26-.56.41-.83.27-.53.41-.79.35-.64.54-1,.25-.41.38-.61a.41.41,0,0,1,.05-.09c.15-.24.3-.48.46-.71l0,0,.47-.69.13-.16c.14-.2.29-.4.44-.59A29.36,29.36,0,0,1,23.7,47.3l.51-.49c.25-.23.5-.47.77-.69l.67-.58c.22-.18.43-.35.65-.51l.16-.13.65-.48.76-.53.77-.5c.26-.16.52-.32.79-.47A28.3,28.3,0,0,0,25.36,57.6c0,15.76,12.82,21.2,28.59,21.2h92.79c15.5,0,17.35-8.5,17.21-15l3.59,4.36A18.21,18.21,0,0,1,170.38,77.91Z"/><path class="cls-2" d="M497.79,351.51A28.74,28.74,0,1,0,446.42,326,18.76,18.76,0,0,0,417,341.4a18.42,18.42,0,0,0,.87,5.63A22.13,22.13,0,0,0,422,390.9h72.57a19.83,19.83,0,0,0,3.21-39.39Z"/><path class="cls-3" d="M514.4,371.07a19.82,19.82,0,0,1-19.82,19.83H422a22.12,22.12,0,0,1-20.44-30.6A22.12,22.12,0,0,0,422,374h72.57a19.83,19.83,0,0,0,17.93-11.35A19.75,19.75,0,0,1,514.4,371.07Z"/><path class="cls-2" d="M119.06,308.07l3.08.75a7.92,7.92,0,0,0,6.7-1.41l2.52-1.93a1.85,1.85,0,0,1,2.93,1.9l-.75,3.08a7.94,7.94,0,0,0,1.41,6.71l1.93,2.52a1.85,1.85,0,0,1-1.9,2.92l-3.09-.75a8,8,0,0,0-6.7,1.42l-2.52,1.93a1.85,1.85,0,0,1-2.92-1.91l.75-3.08a8,8,0,0,0-1.42-6.7L117.15,311A1.86,1.86,0,0,1,119.06,308.07Z"/><path class="cls-2" d="M133.73,335.58l1.91.46a4.91,4.91,0,0,0,4.14-.87l1.56-1.2a1.15,1.15,0,0,1,1.81,1.18l-.47,1.91a4.92,4.92,0,0,0,.88,4.14l1.19,1.55a1.14,1.14,0,0,1-1.18,1.81l-1.9-.46a4.9,4.9,0,0,0-4.14.87l-1.56,1.2a1.15,1.15,0,0,1-1.81-1.18l.46-1.91a4.91,4.91,0,0,0-.87-4.14l-1.19-1.56A1.14,1.14,0,0,1,133.73,335.58Z"/><path class="cls-4" d="M344.64,150.71l2.18,2.31a8,8,0,0,0,6.39,2.47l3.16-.24a1.85,1.85,0,0,1,1.41,3.19l-2.3,2.17A7.92,7.92,0,0,0,353,167l.24,3.17a1.85,1.85,0,0,1-3.19,1.41l-2.18-2.31a7.94,7.94,0,0,0-6.39-2.47l-3.16.24a1.85,1.85,0,0,1-1.41-3.19l2.3-2.17a7.92,7.92,0,0,0,2.47-6.39l-.24-3.17A1.85,1.85,0,0,1,344.64,150.71Z"/><path class="cls-2" d="M96.67,158.78l1.65,2.71a8,8,0,0,0,5.74,3.74l3.14.41a1.85,1.85,0,0,1,.72,3.42l-2.7,1.65a7.93,7.93,0,0,0-3.74,5.74l-.42,3.14a1.85,1.85,0,0,1-3.41.72L96,177.61a7.93,7.93,0,0,0-5.74-3.74l-3.14-.42a1.85,1.85,0,0,1-.72-3.41l2.71-1.66a8,8,0,0,0,3.74-5.74l.41-3.14A1.85,1.85,0,0,1,96.67,158.78Z"/><path class="cls-4" d="M90.08,195.46,91,197a4.61,4.61,0,0,0,3.35,2.18l1.83.25a1.08,1.08,0,0,1,.42,2l-1.58,1a4.64,4.64,0,0,0-2.18,3.35l-.24,1.83a1.08,1.08,0,0,1-2,.42l-1-1.58a4.67,4.67,0,0,0-3.34-2.18L84.5,204a1.08,1.08,0,0,1-.42-2l1.58-1a4.57,4.57,0,0,0,2.18-3.34l.25-1.83A1.08,1.08,0,0,1,90.08,195.46Z"/><path class="cls-4" d="M544.68,173.37l1,1.58a4.67,4.67,0,0,0,3.35,2.18l1.83.24a1.08,1.08,0,0,1,.42,2l-1.58,1a4.61,4.61,0,0,0-2.18,3.35l-.24,1.83a1.08,1.08,0,0,1-2,.42l-1-1.57a4.61,4.61,0,0,0-3.34-2.18l-1.84-.25a1.08,1.08,0,0,1-.42-2l1.58-1a4.61,4.61,0,0,0,2.18-3.35l.24-1.83A1.09,1.09,0,0,1,544.68,173.37Z"/><path class="cls-2" d="M325.14,238.18l1,1.58a4.61,4.61,0,0,0,3.35,2.18l1.83.25a1.08,1.08,0,0,1,.42,2l-1.58,1a4.67,4.67,0,0,0-2.18,3.35l-.24,1.83a1.08,1.08,0,0,1-2,.42l-1-1.58A4.64,4.64,0,0,0,321.4,247l-1.83-.24a1.08,1.08,0,0,1-.42-2l1.58-1a4.67,4.67,0,0,0,2.18-3.34l.24-1.84A1.08,1.08,0,0,1,325.14,238.18Z"/><path class="cls-2" d="M539.51,198l1.37,2.25a6.61,6.61,0,0,0,4.77,3.11l2.61.35a1.53,1.53,0,0,1,.6,2.83l-2.25,1.38a6.59,6.59,0,0,0-3.11,4.77l-.34,2.61a1.54,1.54,0,0,1-2.84.6L539,213.6a6.6,6.6,0,0,0-4.77-3.11l-2.62-.35a1.54,1.54,0,0,1-.6-2.83l2.25-1.38a6.58,6.58,0,0,0,3.11-4.77l.35-2.61A1.54,1.54,0,0,1,539.51,198Z"/></g></g></svg>