<svg xmlns="http://www.w3.org/2000/svg" viewBox="0 0 134.44 78.67"><defs><style>.cls-1{isolation:isolate;}.cls-2{fill:#fff5fb;}.cls-3{fill:#d1d1d1;opacity:0.3;mix-blend-mode:multiply;}</style></defs><title>logo_illustration_UI</title><g class="cls-1"><g id="Calque_1" data-name="Calque 1"><path class="cls-2" d="M120.15,54.7a2.56,2.56,0,0,0,0-.39,5.87,5.87,0,0,0-.08-.72q0-.35-.12-.69a3,3,0,0,0-.07-.32,3.45,3.45,0,0,0-.12-.46c0-.13-.07-.26-.11-.38s-.12-.38-.19-.57-.14-.37-.22-.55-.15-.34-.23-.51a5.85,5.85,0,0,0-.28-.56c-.12-.22-.24-.43-.38-.64l0-.06h0a12.17,12.17,0,0,0-16.94-3.69,28.34,28.34,0,0,0-27.7-34.28,28.13,28.13,0,0,0-15.28,4.5h0l0,0a28.63,28.63,0,0,0-7.77,7.43,28.22,28.22,0,0,0-4.41,9.62,19.56,19.56,0,0,0-3.55-1.76,18.92,18.92,0,0,0-16.13,1.41v0l-.29.18-.23.14-.47.3,0,0-.09.06c-.15.09-.28.19-.42.29s-.19.13-.28.21l-.15.11-.11.08-.43.34-.45.39-.27.25-.24.21-.33.32a.43.43,0,0,0-.09.1,8.07,8.07,0,0,0-.64.67c-.13.15-.27.3-.39.45a5.65,5.65,0,0,0-.4.48c-.07.07-.12.15-.18.22s-.21.27-.3.4a.44.44,0,0,0-.08.11l-.32.45,0,0c-.1.15-.21.31-.3.47l0,0-.15.25a1.4,1.4,0,0,0-.1.16l-.36.63h0L19,40c-.05.1-.1.2-.14.3a1.92,1.92,0,0,0-.12.25c-.09.19-.17.38-.26.56v0h0c-.08.19-.16.36-.23.55s-.08.21-.11.31l-.06.15-.09.26-.15.47c-.07.23-.14.46-.2.69s-.08.28-.11.42,0,.09,0,.14-.05.22-.07.34a1.55,1.55,0,0,0-.05.23c0,.16-.07.33-.1.5s0,.19-.05.29a.68.68,0,0,1,0,.14c0,.06,0,.12,0,.17a.83.83,0,0,0,0,.22,1.52,1.52,0,0,0,0,.21l0,.22s0,.09,0,.14a.43.43,0,0,0,0,0l0,.41c0,.06,0,.11,0,.17a5.44,5.44,0,0,0,0,.57.22.22,0,0,0,0,.08c0,.19,0,.37,0,.56a18.56,18.56,0,0,0,.39,3.9c.06.31.13.61.21.92a0,0,0,0,1,0,0A19,19,0,0,0,34.11,67.43a17.74,17.74,0,0,0,1.94.1H109l.24,0h.12l.49-.07h.09l.51-.1.26,0,.33-.08h0l.24-.07.33-.1h0l.36-.12.18-.07.31-.11.25-.11.16-.07.38-.17c.16-.07.31-.15.46-.23l.06,0,.3-.16.29-.18.17-.1q.38-.24.72-.51l.24-.18.17-.13s0,0,0,0l.16-.13.29-.25c.1-.1.2-.19.3-.3l.18-.17.2-.2.14-.16.15-.16.24-.28.36-.46.22-.3.23-.34.27-.44c.14-.24.28-.49.41-.75l.19-.39,0-.06.11-.27a.36.36,0,0,0,0-.09,9.74,9.74,0,0,0,.37-1c0-.15.09-.3.13-.45A11.45,11.45,0,0,0,120,57.2l.06-.45,0-.26c0-.37,0-.75,0-1.14C120.17,55.13,120.16,54.91,120.15,54.7Z"/><path class="cls-3" d="M120.21,55.34a12,12,0,0,1-.55,3.62c-.11.35-.24.69-.38,1l-.15.36,0,.06c-.06.13-.12.27-.19.4s-.25.48-.39.72l0,0-.27.43-.23.34-.21.3c-.12.16-.24.31-.37.46l-.24.28c-.09.11-.19.22-.29.32l-.33.34-.35.33a3.47,3.47,0,0,1-.29.25l-.21.18-.17.14c-.31.24-.63.47-1,.68l-.17.11-.29.17h0l-.34.19-.46.24-.38.17-.41.17a4.09,4.09,0,0,1-.49.18,2.53,2.53,0,0,1-.36.12l-.36.11h0l-.22.06-.21,0-.14,0-.76.14c-.19,0-.39.06-.59.09l-.35,0H36a17.74,17.74,0,0,1-1.94-.1c-.66-.07-1.32-.17-2-.3a19.25,19.25,0,0,1-12-8.18s0,0,0,0a20.42,20.42,0,0,1-1.15-2c-.16-.34-.33-.69-.48-1.05A19.08,19.08,0,0,1,17,48.42c0-.19,0-.38,0-.56s0-.22,0-.33c0-.32.05-.64.08-1s.07-.64.12-1a.59.59,0,0,1,0-.14c0-.1,0-.19.05-.29s.06-.33.1-.5a1.89,1.89,0,0,1,0-.23c.05-.23.1-.46.16-.69s.13-.48.2-.71a3.38,3.38,0,0,1,.11-.34,3,3,0,0,1,.1-.32l.09-.26.06-.16a17,17,0,0,1,.72-1.7c.13-.28.27-.55.42-.82a6.44,6.44,0,0,1,.36-.63c.08-.14.16-.28.25-.41l0,0,.31-.48s0,0,0,0l.09-.13c.09-.14.19-.27.29-.4l0,0,.18-.25a4.78,4.78,0,0,1,.34-.42,3.66,3.66,0,0,1,.32-.39q.2-.24.42-.48c.24-.27.48-.53.74-.78l.33-.32.24-.22c.2-.19.41-.37.62-.54l.11-.09.43-.34.1-.08.25-.19.5-.36.19-.13.07-.05.44-.28.22-.13.3-.18a19,19,0,0,1,19.69.36,28.38,28.38,0,0,1,4.36-9.56l.05-.06a28.2,28.2,0,0,1,7.54-7.27,1.88,1.88,0,0,1,.23-.16l.05,0,.45,31.21c0,6.09,5,10.51,11.08,10.51h34.6c10.31,0,13.93-3.87,13.84-8.22.18.28.35.57.5.86s.21.4.3.61.16.35.23.53l.12.32c.07.18.13.37.19.56s.07.24.11.36l.12.49a3,3,0,0,1,.07.32q.08.34.12.69a5.82,5.82,0,0,1,.08.73,2.19,2.19,0,0,1,0,.36C120.2,54.89,120.21,55.12,120.21,55.34Z"/></g></g></svg>