<svg xmlns="http://www.w3.org/2000/svg" viewBox="0 0 134.44 78.67"><defs><style>.cls-1{isolation:isolate;}.cls-2{fill:#fff5fb;}.cls-3{fill:#d1d1d1;opacity:0.3;mix-blend-mode:multiply;}</style></defs><title>logo_illustration_UI</title><g class="cls-1"><g id="Calque_1" data-name="Calque 1"><path class="cls-2" d="M122.88,61.06c.07-.17.12-.34.18-.51s.17-.43.24-.65.12-.47.18-.71.1-.35.13-.53c.09-.41.15-.84.2-1.27h0a12.08,12.08,0,0,0,.07-1.35c0-.42,0-.83-.06-1.23l0-.25c0-.36-.09-.71-.16-1.06l0-.14a11.32,11.32,0,0,0-.3-1.18c0-.05,0-.1,0-.14q-.16-.51-.36-1l-.09-.21a12.65,12.65,0,0,0-1-1.82h0v0a13.11,13.11,0,0,0-18.31-4,31,31,0,0,0,.68-6.43A30.61,30.61,0,0,0,47.24,23h0c-.35.58-.67,1.19-1,1.8a2.4,2.4,0,0,0-.11.23c-.29.58-.56,1.18-.81,1.79-.05.1-.09.21-.14.31-.24.61-.47,1.22-.67,1.84l-.09.28c-.21.66-.4,1.32-.57,2l-.12-.07c-.32-.2-.64-.39-1-.56-.15-.09-.3-.16-.45-.24L42,30.23h0a20.37,20.37,0,0,0-19.37.69l0,0-.57.35c-.18.11-.37.23-.55.36h0l-.13.09L21,32l-.47.34-.12.09-.44.35-.14.12-.37.31-.55.5-.36.35,0,0-.3.32c-.31.32-.61.64-.89,1l-.39.47c-.07.09-.16.18-.23.28l-.32.42a.62.62,0,0,1-.09.12c-.12.16-.23.33-.34.49l0,0h0c-.11.16-.22.33-.32.5l0,.06-.27.44c-.13.22-.27.45-.39.68l-.3.57c-.1.2-.19.4-.28.59s-.19.41-.28.62v0c-.08.19-.16.4-.24.6s-.13.33-.18.5a2.31,2.31,0,0,0-.1.28l-.09.29c-.05.16-.1.31-.14.47s-.11.32-.16.49-.08.3-.11.45a1.24,1.24,0,0,0,0,.16c0,.12-.06.24-.08.36l-.06.25c0,.18-.07.36-.1.54s0,.21,0,.31,0,.23-.05.35,0,.15,0,.23,0,.3-.05.46l0,.2c0,.21,0,.43,0,.64s0,.46,0,.7,0,.47,0,.7A20.55,20.55,0,0,0,32.92,69.19h78.32l.45,0h.11l.22,0h.16c.21,0,.43,0,.63-.09s.23,0,.35-.06l.34-.07.14,0,.38-.1.24-.06.39-.12a3,3,0,0,0,.39-.13l.53-.19.17-.08.17-.07.11,0,.4-.19.5-.25,0,0,.09-.05.26-.14.32-.19.18-.12.11-.08.56-.39c.12-.09.25-.17.37-.27l.18-.14,0,0,0,0,.14-.11.31-.28c.1-.08.18-.18.27-.26l.32-.32.14-.14.32-.34.22-.27.09-.11a4.58,4.58,0,0,0,.34-.43l.24-.32a2.14,2.14,0,0,1,.13-.19h0l.12-.17.29-.47.14-.27a2.68,2.68,0,0,0,.18-.33l.12-.21.21-.43,0-.06.11-.26,0-.06Z"/><path class="cls-3" d="M123.91,56.07a13.17,13.17,0,0,1-.15,2,13,13,0,0,1-1,3.47,1.63,1.63,0,0,1-.11.23c-.08.17-.16.33-.25.49a.56.56,0,0,1-.09.17l-.27.46a3.48,3.48,0,0,1-.22.36l-.12.18c-.24.35-.49.69-.76,1s-.27.33-.41.48a1.29,1.29,0,0,1-.16.17,9.9,9.9,0,0,1-.73.72c-.1.1-.21.19-.32.28l-.23.19-.18.15c-.34.26-.68.51-1,.74l-.18.11-.32.19a0,0,0,0,0,0,0c-.12.07-.24.14-.37.2a4.74,4.74,0,0,1-.5.26l-.4.18-.45.19-.53.2-.39.13-.39.11-.24.07h0l-.37.09c-.27.06-.55.12-.83.16a3,3,0,0,1-.42.06,1.52,1.52,0,0,1-.21,0h-.12l-.66,0H32.9a20.45,20.45,0,0,1-14.52-6,21,21,0,0,1-2.52-3c-.37-.55-.71-1.11-1-1.69a21.74,21.74,0,0,1-1.56-3.68,20.54,20.54,0,0,1-.92-6.11,20.79,20.79,0,0,1,.11-2.1c0-.34.07-.69.13-1s.11-.67.18-1,.14-.66.23-1a1,1,0,0,1,.06-.23q.07-.31.18-.63l.15-.47s0-.1,0-.15a2.31,2.31,0,0,1,.1-.28c0-.07.05-.14.07-.2.22-.59.46-1.17.74-1.74.06-.13.12-.26.19-.39s.19-.38.29-.57.33-.57.5-.86l.16-.26.37-.57,0,0c.18-.26.37-.52.56-.77s.4-.53.61-.78.43-.51.66-.76.44-.47.67-.7l.1-.1.36-.35.31-.29.69-.59,0,0,.58-.45.47-.35c.17-.13.35-.26.54-.38s.36-.25.55-.36l.57-.34A20.49,20.49,0,0,1,42,30.25c.35.17.7.36,1,.55l.87.52c.12-.5.26-1,.41-1.48.09-.32.19-.64.3-.95.16-.49.33-1,.53-1.45s.25-.65.39-1,.33-.74.51-1.11a.36.36,0,0,1,0-.09c.17-.36.36-.72.55-1.08s.4-.74.62-1.1a.08.08,0,0,1,0,0A101.22,101.22,0,0,0,73.42,57.19h33.5c11.15,0,15-3.44,15-8.15l.13.21c.22.36.42.73.61,1.12.09.19.18.38.26.58s.16.4.24.6a4.9,4.9,0,0,1,.21.61c.06.21.12.41.17.62s.11.43.15.64a3.71,3.71,0,0,1,.12.65A13.17,13.17,0,0,1,123.91,56.07Z"/></g></g></svg>