<svg id="Calque_1" data-name="Calque 1" xmlns="http://www.w3.org/2000/svg" viewBox="0 0 315 241"><defs><style>.cls-1{fill:#fff;}.cls-2{fill:#f7931e;opacity:0.3;}</style></defs><title>cloud-contact</title><path class="cls-1" d="M255.16,121.7A69.1,69.1,0,1,0,131.65,60.24,45.13,45.13,0,0,0,63,110.94,53.19,53.19,0,0,0,73,216.38H247.44a47.65,47.65,0,0,0,7.72-94.68Z"/><path class="cls-2" d="M292.19,185.19a47.7,47.7,0,0,1-44.76,31.19H73a53.19,53.19,0,0,1-30.22-97A53.22,53.22,0,0,0,92,192.71H266.47A47.48,47.48,0,0,0,292.19,185.19Z"/></svg>