<svg xmlns="http://www.w3.org/2000/svg" viewBox="0 0 607.76 480.96"><defs><style>.cls-1{isolation:isolate;}.cls-2{fill:#fff5fb;}.cls-3{fill:#d1d1d1;}.cls-13,.cls-3{opacity:0.3;}.cls-13,.cls-14,.cls-16,.cls-3,.cls-6,.cls-8{mix-blend-mode:multiply;}.cls-4{fill:none;}.cls-5,.cls-6{fill:#e3a078;}.cls-14,.cls-6,.cls-8,.cls-9{opacity:0.5;}.cls-14,.cls-7{fill:#903b0d;}.cls-8{fill:#e54595;}.cls-10{fill:#f2c0dc;}.cls-11{opacity:0.25;}.cls-12{fill:#fff;}.cls-13{fill:#7b7b7b;}.cls-15{fill:#c1a3a3;}.cls-16{fill:#251826;opacity:0.2;}</style></defs><title>logo_illustration_UI</title><g class="cls-1"><g id="Calque_1" data-name="Calque 1"><path class="cls-2" d="M318.06,294c.07-.16.12-.34.18-.51s.16-.43.23-.65.13-.47.19-.71.09-.35.13-.53a12.73,12.73,0,0,0,.19-1.26v0c0-.44.07-.89.07-1.34s0-.83-.07-1.24a1.94,1.94,0,0,1,0-.24c-.05-.36-.1-.72-.17-1.07,0,0,0-.09,0-.14-.09-.4-.19-.79-.31-1.18,0-.05,0-.09,0-.14-.11-.34-.23-.67-.37-1l-.08-.2a13.25,13.25,0,0,0-1-1.83h0a13.12,13.12,0,0,0-18.31-4,30.6,30.6,0,0,0-56.28-22h0c-.35.59-.67,1.19-1,1.8l-.12.23c-.29.59-.56,1.18-.81,1.79,0,.11-.09.21-.13.32-.24.6-.47,1.22-.68,1.84,0,.09,0,.19-.08.28-.21.65-.41,1.32-.57,2l-.13-.08c-.31-.19-.63-.38-1-.56l-.46-.24-.36-.19h0a20.39,20.39,0,0,0-19.38.69l0,0-.56.34-.56.36h0l-.13.09-.41.28a5.55,5.55,0,0,0-.46.35l-.12.09-.44.35-.15.12-.36.31c-.19.16-.37.33-.55.5l-.36.35,0,0-.29.31q-.47.48-.9,1c-.13.15-.26.3-.38.46l-.23.28c-.12.14-.22.29-.33.43l-.08.12c-.12.16-.24.32-.35.49v0h0l-.33.5a.25.25,0,0,1,0,.07l-.26.43c-.14.23-.27.45-.4.69s-.19.37-.29.57-.2.39-.29.59-.19.41-.27.61v0c-.09.2-.17.4-.25.61l-.18.49c0,.09-.07.19-.1.28s-.05.2-.09.3-.09.31-.14.46-.11.33-.15.5-.08.3-.12.45a.83.83,0,0,1,0,.15c0,.12-.05.24-.07.36s0,.17-.06.25-.07.36-.1.55l-.06.3c0,.12,0,.23,0,.35l0,.23-.06.47c0,.07,0,.13,0,.2s0,.42,0,.63,0,.47,0,.7,0,.47,0,.71a20.57,20.57,0,0,0,20.54,20.54h78.31l.46,0H307l.21,0h.17q.31,0,.63-.09l.34-.07.34-.06.15,0,.37-.09.25-.07.39-.11.39-.13.52-.2.18-.07.17-.08.1,0,.41-.18a4.59,4.59,0,0,0,.49-.26l0,0,.08,0,.27-.15.31-.19.18-.11.12-.09c.19-.12.37-.25.55-.39l.38-.26.17-.15.05,0,.05,0,.14-.12.31-.28.26-.26.33-.31.14-.14c.11-.12.22-.23.32-.35s.15-.17.22-.27l.09-.1c.12-.14.23-.29.34-.43s.15-.22.23-.32l.13-.19h0a1,1,0,0,1,.11-.17l.29-.47.15-.27.18-.33.12-.21c.07-.14.14-.29.2-.43l0-.06.11-.26,0-.06Z"/><path class="cls-3" d="M319.09,289a13.17,13.17,0,0,1-.15,2,13,13,0,0,1-1,3.47,1.63,1.63,0,0,1-.11.23c-.08.17-.16.33-.25.49a.56.56,0,0,1-.09.17l-.27.46a3.48,3.48,0,0,1-.22.36l-.12.18c-.24.35-.49.69-.76,1-.13.17-.27.33-.41.48a1.29,1.29,0,0,1-.16.17,9.9,9.9,0,0,1-.73.72c-.1.1-.21.19-.32.28l-.23.19-.18.15c-.34.26-.68.51-1,.74l-.18.11-.32.19h0c-.12.07-.24.14-.37.2a4.74,4.74,0,0,1-.5.26l-.4.18-.45.19-.53.2-.39.13-.39.11-.24.07h0l-.37.09c-.27.06-.55.12-.83.16l-.42.06-.21,0h-.12l-.66.05H228.08a20.45,20.45,0,0,1-14.52-6,21,21,0,0,1-2.52-3c-.37-.55-.71-1.11-1-1.69a21.74,21.74,0,0,1-1.56-3.68,20.54,20.54,0,0,1-.92-6.11,20.79,20.79,0,0,1,.11-2.1c0-.34.07-.69.13-1s.11-.67.18-1,.14-.66.23-1a1,1,0,0,1,.06-.23q.07-.32.18-.63l.15-.47.05-.15a2.31,2.31,0,0,1,.1-.28c0-.07.05-.14.07-.2.22-.59.46-1.17.74-1.74.06-.13.12-.26.19-.39s.19-.38.29-.57.33-.57.5-.86l.16-.26.37-.57s0,0,0,0c.18-.26.37-.52.56-.77s.4-.53.61-.78.43-.51.66-.76.44-.47.67-.7l.1-.1.36-.35.31-.29.69-.59,0,0,.58-.45.47-.35c.17-.13.35-.26.54-.38s.36-.25.55-.36l.57-.34a20.49,20.49,0,0,1,19.36-.67c.35.17.7.36,1,.55l.87.52c.12-.5.26-1,.41-1.48.09-.32.19-.64.3-.95.16-.49.33-1,.53-1.45s.25-.65.39-1,.33-.74.51-1.11a.36.36,0,0,1,0-.09c.17-.36.36-.72.55-1.08s.4-.74.62-1.1l0,0a101.22,101.22,0,0,0,26.19,34.13h33.5c11.15,0,15-3.44,14.95-8.15l.13.21c.22.36.42.73.61,1.12.09.19.18.38.26.58s.16.4.24.6a4.9,4.9,0,0,1,.21.61c.06.21.12.41.17.62s.11.43.15.64a3.71,3.71,0,0,1,.12.65A13.17,13.17,0,0,1,319.09,289Z"/><path class="cls-2" d="M588.93,136.16a2.56,2.56,0,0,0,0-.39,5.87,5.87,0,0,0-.08-.72q0-.35-.12-.69a3,3,0,0,0-.07-.32,3.45,3.45,0,0,0-.12-.46c0-.13-.07-.26-.11-.38s-.12-.38-.19-.57-.14-.37-.22-.55-.15-.34-.23-.51a5.85,5.85,0,0,0-.28-.56c-.12-.22-.24-.43-.38-.64l0-.06h0a12.17,12.17,0,0,0-16.94-3.69,28.34,28.34,0,0,0-27.7-34.28,28.18,28.18,0,0,0-15.28,4.5h0l0,0a28.92,28.92,0,0,0-7.77,7.43,28.22,28.22,0,0,0-4.41,9.62,19.56,19.56,0,0,0-3.55-1.76,18.92,18.92,0,0,0-16.13,1.41s0,0,0,0l-.29.18-.23.14-.47.3,0,0-.09.06c-.15.09-.28.19-.42.29s-.19.13-.28.21l-.15.11-.11.08-.43.34-.45.39-.27.25-.24.21-.33.32a.43.43,0,0,0-.09.1,8.07,8.07,0,0,0-.64.67c-.13.15-.27.3-.39.45a5.65,5.65,0,0,0-.4.48c-.07.07-.12.15-.18.22s-.21.27-.3.4a.44.44,0,0,0-.08.11l-.32.45,0,0c-.1.15-.21.31-.3.47l0,0-.15.25a1.4,1.4,0,0,0-.1.16l-.36.63h0l-.28.52c-.05.1-.1.2-.14.3a1.92,1.92,0,0,0-.12.25c-.09.19-.17.38-.26.56v0h0c-.08.19-.16.36-.23.55s-.08.21-.11.31l-.06.15-.09.26-.15.47c-.07.23-.14.46-.2.69s-.08.28-.11.42,0,.09,0,.14,0,.22-.07.34a1.55,1.55,0,0,0,0,.23c0,.16-.07.33-.1.5s0,.19-.05.29a.68.68,0,0,1,0,.14c0,.06,0,.12,0,.17a.83.83,0,0,0,0,.22,1.52,1.52,0,0,0,0,.21l0,.22s0,.09,0,.14a.43.43,0,0,0,0,0l0,.41c0,.06,0,.11,0,.17a5.44,5.44,0,0,0,0,.57.22.22,0,0,0,0,.08c0,.19,0,.37,0,.56a18.56,18.56,0,0,0,.39,3.9c.06.31.13.61.21.92a0,0,0,0,1,0,0,19,19,0,0,0,16.52,14.16,17.74,17.74,0,0,0,1.94.1h72.94l.24,0h.12l.49-.07h.09l.51-.1.26-.05.33-.08h0l.24-.07.33-.1h0l.36-.12.18-.07.31-.11.25-.11.16-.07.38-.17c.16-.07.31-.15.46-.23l.06,0,.3-.16.29-.18.17-.1q.38-.24.72-.51c.08,0,.16-.12.24-.18l.17-.13,0,0,.16-.13.29-.25.3-.3.18-.17c.07-.07.14-.13.2-.2l.14-.16.15-.16.24-.28.36-.46.22-.3.23-.34.27-.44c.14-.24.28-.49.41-.75l.19-.39,0-.06.11-.27a.36.36,0,0,0,0-.09,9.74,9.74,0,0,0,.37-1c.05-.15.09-.3.13-.45a11.45,11.45,0,0,0,.28-1.32l.06-.45,0-.26c0-.37.05-.75.05-1.14C589,136.59,588.94,136.37,588.93,136.16Z"/><path class="cls-3" d="M589,136.8a12,12,0,0,1-.55,3.62c-.11.35-.24.69-.38,1l-.15.36,0,.06c-.06.13-.12.27-.19.4s-.25.48-.39.72l0,0-.27.43-.23.34-.21.3c-.12.16-.24.31-.37.46l-.24.28c-.09.11-.19.22-.29.32l-.33.34-.35.33a3.47,3.47,0,0,1-.29.25l-.21.18-.17.14c-.31.24-.63.47-1,.68l-.17.11-.29.17h0l-.34.19-.46.24-.38.17-.41.17a4.09,4.09,0,0,1-.49.18l-.36.12-.36.11h0l-.22.06-.21.05-.14,0-.76.14c-.19,0-.39.06-.59.09l-.35,0h-73a17.74,17.74,0,0,1-1.94-.1c-.66-.07-1.32-.17-1.95-.3a19.25,19.25,0,0,1-12.05-8.18s0,0,0,0a20.42,20.42,0,0,1-1.15-2c-.16-.34-.33-.69-.48-1a19.08,19.08,0,0,1-1.5-7.49c0-.19,0-.38,0-.56s0-.22,0-.33c0-.32.05-.64.08-1s.07-.64.12-1a.59.59,0,0,1,0-.14c0-.1,0-.19,0-.29s.06-.33.1-.5a1.89,1.89,0,0,1,.05-.23c.05-.23.1-.46.16-.69s.13-.48.2-.71a3.38,3.38,0,0,1,.11-.34,3,3,0,0,1,.1-.32l.09-.26.06-.16a17,17,0,0,1,.72-1.7c.13-.28.27-.55.42-.82a6.44,6.44,0,0,1,.36-.63c.08-.14.16-.28.25-.41l0-.05.31-.48s0,0,0,0l.09-.13c.09-.14.19-.27.29-.4s0,0,0,0l.18-.25a4.78,4.78,0,0,1,.34-.42,3.66,3.66,0,0,1,.32-.39q.19-.24.42-.48c.24-.27.48-.53.74-.78l.33-.32.24-.22c.2-.19.41-.37.62-.54l.11-.09.43-.34.1-.08.25-.19.5-.36.19-.13.07,0,.44-.28.22-.13.3-.18a19,19,0,0,1,19.69.36,28.38,28.38,0,0,1,4.36-9.56l0-.06A28.2,28.2,0,0,1,526.85,97a1.88,1.88,0,0,1,.23-.16l0,0,.45,31.21c0,6.09,5,10.51,11.08,10.51h34.6c10.31,0,13.93-3.87,13.84-8.22.18.28.35.57.5.86s.21.4.3.61.16.35.23.53l.12.32c.07.18.13.37.19.56s.07.24.11.36l.12.49a3,3,0,0,1,.07.32q.07.35.12.69a5.82,5.82,0,0,1,.08.73,2.19,2.19,0,0,1,0,.36C589,136.35,589,136.58,589,136.8Z"/><circle class="cls-4" cx="169.71" cy="285.84" r="53.27"/><path class="cls-5" d="M307.12,43.72A25,25,0,0,0,282.2,68.64v41.09a25,25,0,0,0,24.92,24.92H418.9v80.67c0,55.79-43.35,101.19-96.64,101.19s-96.64-45.4-96.64-101.22a25,25,0,0,0-24.92-24.92H159.27a25,25,0,0,0-24.92,24.95c0,106.86,84.22,193.8,187.74,193.8s187.74-86.94,187.74-193.8V43.72Z"/><circle class="cls-5" cx="179.81" cy="89.18" r="45.47"/><path class="cls-5" d="M307.12,43.72A25,25,0,0,0,282.2,68.64v41.09a25,25,0,0,0,24.92,24.92H418.9v80.67c0,55.79-43.35,101.19-96.64,101.19s-96.64-45.4-96.64-101.22a25,25,0,0,0-24.92-24.92H159.27a25,25,0,0,0-24.92,24.95c0,106.86,84.22,193.8,187.74,193.8s187.74-86.94,187.74-193.8V43.72Z"/><circle class="cls-5" cx="179.81" cy="89.18" r="45.47"/><path class="cls-6" d="M480.86,139.73v75.58c0,90.89-71.22,164.84-158.77,164.84-85.46,0-155.36-70.47-158.64-158.38l-23.61-22.05a24.81,24.81,0,0,0-5.49,15.59c0,106.87,84.22,193.81,187.74,193.81s187.74-86.94,187.74-193.81V132.84Z"/><path class="cls-7" d="M235.27,215.29a34.62,34.62,0,0,0-34.57-34.58H159.27a34.63,34.63,0,0,0-34.58,34.6c0,1.42,0,2.83,0,4.24,0,.51,0,1,0,1.56a26.55,26.55,0,0,0,40.87,22.37,35.33,35.33,0,0,0,69.9-7.25V221.11C235.34,219.18,235.27,217.24,235.27,215.29ZM509.94,34.06H307.12a34.58,34.58,0,0,0-34.58,34.58v41.09c0,.37,0,.74,0,1.11s0,.74.06,1.1,0,.49.05.73,0,.39.05.59c.06.58.14,1.16.22,1.73,0,.22.07.45.12.67s0,.21.05.31l.12.61c.12.6.26,1.19.4,1.78,0,.13.07.26.11.38l0,.11c.18.69.39,1.37.62,2,.07.2.14.41.22.61.14.4.29.8.45,1.19.09.2.17.39.25.59.16.38.34.77.52,1.15.08.18.18.37.27.56a32.66,32.66,0,0,0,1.84,3.27c.08.14.17.28.26.41q.75,1.13,1.56,2.19l.34.42.4.5.48.57c.4.46.81.91,1.23,1.34.15.17.31.33.47.49.8.79,1.63,1.55,2.49,2.25l.57.47,1.09.82.5.36,1,.69.52.34.53.32.87.5a34,34,0,0,0,4.78,2.22l.52.19c.71.25,1.43.48,2.15.68l.74.2.86.21.82.18c.56.12,1.13.22,1.7.3l.86.12.92.11.77.07.72.05.48,0c.5,0,1,0,1.51,0H409.24v71c0,1.31,0,2.6-.09,3.9,0,.63-.09,1.25-.09,1.9a21.9,21.9,0,0,0,31.34,19.75,28.5,28.5,0,0,0,56.24-.67c.42,0,.85.06,1.28.08h.48a20.89,20.89,0,0,0,21.09-20.67c0-.35,0-.71,0-1.06,0-1.07,0-2.15,0-3.23V43.61A9.55,9.55,0,0,0,509.94,34.06Z"/><path class="cls-6" d="M508.59,237.71q-.37,3.38-.87,6.71a27.07,27.07,0,0,1-6.45,1.5,34.31,34.31,0,0,1-64.82,2.33A27.8,27.8,0,0,1,415,243.74c.57-2,1.07-4.08,1.52-6.16a21.89,21.89,0,0,0,23.86,3.28,28.5,28.5,0,0,0,56.24-.66c.58,0,1.17.07,1.76.07A21.42,21.42,0,0,0,508.59,237.71Z"/><path class="cls-6" d="M234.8,258.33a41.11,41.11,0,0,1-72.8-6.71,32.29,32.29,0,0,1-24.57-1.27q-.65-3.63-1.16-7.31a26.54,26.54,0,0,0,29.29.44,35.32,35.32,0,0,0,66.44,8C232.85,253.81,233.79,256.09,234.8,258.33Z"/><path class="cls-8" d="M490.92,253.46c-.05.08-.12.15-.18.23a.65.65,0,0,0,0-.14A1.51,1.51,0,0,1,490.92,253.46Z"/><g class="cls-9"><path class="cls-10" d="M490.3,74.73h-.05c-40.62-.17-76.87-.17-117.52,0h-.05a12.31,12.31,0,0,1-.05-24.62c40.72-.17,77-.17,117.72,0a12.31,12.31,0,0,1-.05,24.62Z"/></g><g class="cls-9"><path class="cls-10" d="M304.54,74.73a12.31,12.31,0,0,1-.15-24.62c8.92-.12,18.05-.15,27.12-.11a12.31,12.31,0,0,1-.05,24.62h-.06c-8.93,0-17.92,0-26.7.11Z"/></g><g class="cls-11"><path class="cls-12" d="M322.43,362.51a138.7,138.7,0,0,1-43-6.8,12.31,12.31,0,0,1,7.65-23.41c40.84,13.34,88.18,2,117.8-28.12a12.31,12.31,0,1,1,17.57,17.25,137.59,137.59,0,0,1-66.72,37.16A144.41,144.41,0,0,1,322.43,362.51Z"/></g><g class="cls-11"><path class="cls-12" d="M251,340.55a12.26,12.26,0,0,1-7-2.19,187.58,187.58,0,0,1-19.91-16.49,12.31,12.31,0,1,1,16.65-18.14A166.64,166.64,0,0,0,258,318.11a12.32,12.32,0,0,1-7,22.44Z"/></g><path class="cls-13" d="M201.11,261.67c-24.26,0-23-28.68-33.54-28.68-10.19,0-14.61,11.71-32.08,9.5a26.53,26.53,0,0,0,30.06,1,35.33,35.33,0,0,0,69.91-7.24V221.11c-.12-1.93-.19-3.86-.19-5.82C235.27,237.58,225.37,261.67,201.11,261.67Z"/><rect class="cls-13" x="494.96" y="95.44" width="9.43" height="45.52" rx="2.9" ry="2.9" transform="translate(156.48 500.12) rotate(-61.37)"/><rect class="cls-2" x="494.54" y="89.04" width="9.43" height="45.52" rx="2.9" ry="2.9" transform="translate(161.88 496.42) rotate(-61.37)"/><rect class="cls-13" x="472.21" y="41.98" width="9.43" height="45.52" rx="2.9" ry="2.9" transform="translate(27.54 237.1) rotate(-28.71)"/><rect class="cls-2" x="475.31" y="36.37" width="9.43" height="45.52" rx="2.9" ry="2.9" transform="translate(30.62 237.89) rotate(-28.71)"/><rect class="cls-13" x="196.21" y="225.95" width="9.43" height="45.52" rx="2.9" ry="2.9" transform="translate(-101.35 144.51) rotate(-32.05)"/><rect class="cls-2" x="198.98" y="220.17" width="9.43" height="45.52" rx="2.9" ry="2.9" transform="translate(-97.86 145.09) rotate(-32.05)"/><rect class="cls-13" x="487.63" y="158.49" width="9.43" height="45.52" rx="2.9" ry="2.9" transform="translate(-30.13 228.94) rotate(-25.43)"/><rect class="cls-2" x="491.04" y="153.07" width="9.43" height="45.52" rx="2.9" ry="2.9" transform="translate(-27.47 229.88) rotate(-25.43)"/><rect class="cls-13" x="294.7" y="99.68" width="45.52" height="9.43" rx="2.9" ry="2.9" transform="translate(-14.07 146.41) rotate(-25.43)"/><rect class="cls-2" x="289.28" y="96.27" width="45.52" height="9.43" rx="2.9" ry="2.9" transform="translate(-13.13 143.75) rotate(-25.43)"/><rect class="cls-13" x="391.33" y="54.42" width="45.52" height="9.43" rx="2.9" ry="2.9" transform="translate(44.67 255.34) rotate(-36.1)"/><rect class="cls-2" x="385.37" y="52.07" width="45.52" height="9.43" rx="2.9" ry="2.9" transform="translate(44.91 251.37) rotate(-36.1)"/><g class="cls-9"><path class="cls-10" d="M206.75,215.9H184.46a12.07,12.07,0,1,1,0-24.14h22.29a12.07,12.07,0,1,1,0,24.14Z"/></g><circle class="cls-6" cx="243.87" cy="373.27" r="7.66"/><circle class="cls-6" cx="255.96" cy="386.6" r="3.71"/><circle class="cls-13" cx="462.98" cy="154.21" r="7.66"/><circle class="cls-13" cx="490.92" cy="222.37" r="3.71"/><circle class="cls-13" cx="428.27" cy="99.68" r="9.22"/><circle class="cls-13" cx="407.02" cy="89.67" r="4.46"/><circle class="cls-13" cx="220.08" cy="237.58" r="4.46"/><circle class="cls-13" cx="325.1" cy="117.46" r="4.46"/><circle class="cls-13" cx="502.61" cy="43.72" r="4.46"/><circle class="cls-13" cx="353.82" cy="49.98" r="4.46"/><circle class="cls-13" cx="458.16" cy="171.14" r="3.71"/><circle class="cls-6" cx="451.8" cy="286.32" r="7.66"/><circle class="cls-6" cx="440.9" cy="298.52" r="3.71"/><circle class="cls-6" cx="372.85" cy="387.66" r="3.71"/><circle class="cls-6" cx="276.25" cy="316.99" r="3.71"/><path class="cls-7" d="M126.55,89.18q0,1.23.06,2.43c1.13,23.24,18.59,39.45,53.2,39.45,29.55,0,47.76-19.6,53.23-40.35,0-.51,0-1,0-1.53a53.27,53.27,0,0,0-106.53,0Z"/><path class="cls-7" d="M179.81,131.06c-34.61,0-52.07-16.21-53.2-39.45A53.25,53.25,0,0,0,233,90.71C227.57,111.46,209.36,131.06,179.81,131.06Z"/><path class="cls-14" d="M179.81,131.06c-34.61,0-52.07-16.21-53.2-39.45A53.25,53.25,0,0,0,233,90.71C227.57,111.46,209.36,131.06,179.81,131.06Z"/><g class="cls-9"><path class="cls-10" d="M164.12,76.81a12.07,12.07,0,0,1-5.89-22.62c14.52-8.1,31.84-7.86,44.13.6a12.07,12.07,0,1,1-13.68,19.89c-5.45-3.75-13.32-2.4-18.69.6A12.1,12.1,0,0,1,164.12,76.81Z"/></g><circle class="cls-13" cx="220.08" cy="80.32" r="4.46"/><circle class="cls-8" cx="151.26" cy="96.76" r="9.22"/><circle class="cls-13" cx="165.24" cy="111.8" r="4.46"/><rect class="cls-13" x="200.47" y="74.18" width="9.43" height="45.52" rx="2.9" ry="2.9" transform="translate(-21.33 110.79) rotate(-28.79)"/><rect class="cls-2" x="203.56" y="68.57" width="9.43" height="45.52" rx="2.9" ry="2.9" transform="translate(-18.24 111.58) rotate(-28.79)"/><rect class="cls-13" x="138.02" y="53.78" width="45.52" height="9.43" rx="2.9" ry="2.9" transform="translate(-9.54 74.69) rotate(-25.43)"/><rect class="cls-2" x="132.59" y="50.37" width="45.52" height="9.43" rx="2.9" ry="2.9" transform="translate(-8.6 72.03) rotate(-25.43)"/><path class="cls-13" d="M328.74,55l-34.8-13.63a2.82,2.82,0,0,0-3.59,1.7L289,46.44a2.82,2.82,0,0,0,1.49,3.69L325.3,63.76a2.83,2.83,0,0,0,3.6-1.7l1.32-3.38A2.83,2.83,0,0,0,328.74,55Z"/><path class="cls-2" d="M327.7,48.77,292.91,35.14a2.82,2.82,0,0,0-3.6,1.71L288,40.22a2.83,2.83,0,0,0,1.48,3.7l34.79,13.63a2.82,2.82,0,0,0,3.6-1.71l1.32-3.37A2.83,2.83,0,0,0,327.7,48.77Z"/><rect class="cls-13" x="163.77" y="103.56" width="9.43" height="45.52" rx="2.9" ry="2.9" transform="translate(3.18 256.78) rotate(-75.14)"/><rect class="cls-2" x="161.83" y="97.46" width="9.43" height="45.52" rx="2.9" ry="2.9" transform="translate(7.64 250.37) rotate(-75.14)"/><path class="cls-13" d="M490.74,253.7a28.92,28.92,0,0,1-7.43,6.55,28.5,28.5,0,0,1-42.91-19.39,21.9,21.9,0,0,1-31.34-19.75c0-.64,0-1.27.09-1.9.05-1.29.09-2.59.09-3.9v-71H307.12c-.51,0-1,0-1.51,0l-.48,0-.72-.05-.77-.07-.92-.1-.86-.12c-.57-.09-1.14-.19-1.7-.31-.27,0-.55-.11-.82-.18l-.86-.2-.74-.21c-.72-.2-1.44-.43-2.14-.68l-.53-.19a32.94,32.94,0,0,1-4.78-2.22l-.87-.49-.53-.33-.52-.34c-.36-.22-.7-.45-1-.69l-.5-.36c-.37-.26-.73-.54-1.09-.82-.19-.15-.38-.3-.56-.46-.87-.71-1.7-1.47-2.5-2.26-.16-.16-.31-.32-.46-.49-.43-.43-.84-.88-1.24-1.34l-.48-.57-.4-.5c-.12-.13-.23-.28-.34-.42-.54-.7-1.06-1.44-1.56-2.19-.09-.13-.18-.27-.26-.41A32.66,32.66,0,0,1,276.1,125c-.09-.18-.19-.37-.27-.56-.18-.38-.36-.76-.52-1.15-.08-.2-.16-.39-.25-.59l-.45-1.19c-.08-.2-.15-.4-.22-.61-.22-.66-.43-1.34-.62-2l0-.11c0-.13-.07-.26-.1-.39-.15-.59-.29-1.18-.41-1.77l-.12-.62a2.87,2.87,0,0,1-.05-.31c-.05-.22-.08-.44-.12-.67-.09-.57-.16-1.15-.22-1.73,0-.19,0-.39-.05-.58s0-.49-.05-.73-.05-.74-.06-1.1,0-.75,0-1.12V90.23c0,15,15.64,37,30.66,37l112.41,1.48a8.55,8.55,0,0,1,8.44,8.55v46.31c.63,31.55-1.42,46.76,13.14,45.42,21.88-2,16.39,17.84,26.38,24.07C470.52,257.35,487.22,259.19,490.74,253.7Z"/><rect class="cls-13" x="425.02" y="120.89" width="45.52" height="9.43" rx="2.9" ry="2.9" transform="translate(122.96 458.43) rotate(-61.37)"/><rect class="cls-2" x="418.62" y="121.31" width="45.52" height="9.43" rx="2.9" ry="2.9" transform="matrix(0.48, -0.88, 0.88, 0.48, 119.26, 453.04)"/><rect class="cls-13" x="368.13" y="87.61" width="9.43" height="45.52" rx="2.9" ry="2.9" transform="translate(-1.75 214.64) rotate(-32.05)"/><rect class="cls-2" x="370.9" y="81.83" width="9.43" height="45.52" rx="2.9" ry="2.9" transform="translate(1.74 215.23) rotate(-32.05)"/><rect class="cls-13" x="437.64" y="187.18" width="9.43" height="45.52" rx="2.9" ry="2.9" transform="translate(125.99 583.66) rotate(-75.14)"/><rect class="cls-2" x="435.7" y="181.07" width="9.43" height="45.52" rx="2.9" ry="2.9" transform="translate(130.46 577.25) rotate(-75.14)"/><path class="cls-15" d="M133.49,421.54c.41-.06.82-.14,1.22-.24C134.31,421.4,133.9,421.48,133.49,421.54Z"/><path class="cls-15" d="M147.18,412.21q.36-.58.66-1.2Q147.54,411.63,147.18,412.21Z"/><path class="cls-2" d="M158.53,73.29a18.2,18.2,0,0,0-10,3,42,42,0,0,0,1-9,42.61,42.61,0,0,0-84-10.15,28.58,28.58,0,1,0-15.24,52.76H158.53a18.32,18.32,0,0,0,0-36.64Z"/><path class="cls-3" d="M176.85,91.61a18.31,18.31,0,0,1-1.39,7l-.23.54,0,.08c-.09.2-.19.4-.29.6-.19.38-.4.76-.62,1.13l-.41.65c-.11.17-.22.34-.35.51l-.32.45q-.25.36-.54.69c-.12.15-.24.29-.37.43l-.43.48c-.33.35-.67.68-1,1l-.44.38-.32.27-.25.2c-.47.37-1,.71-1.45,1l-.25.16-.44.27c-.18.1-.35.2-.54.29s-.45.24-.69.36l-.56.25-.62.27-.74.27c-.18.06-.36.13-.54.18l-.54.16a3.58,3.58,0,0,1-.35.09l-.52.13c-.38.09-.76.16-1.15.22s-.58.09-.88.12l-.53,0-.15,0-.64,0h0l-.7,0H50.23A28.63,28.63,0,0,1,21.65,81.34c0-.34,0-.66,0-1s0-.65,0-1,0-.59.07-.89l0-.28c0-.21,0-.43.08-.64s0-.22,0-.33,0-.32.07-.47,0-.29.08-.44.09-.5.14-.75.05-.23.08-.35.07-.33.11-.5l0-.22c.05-.21.1-.41.16-.62.16-.6.34-1.18.54-1.75,0-.13.08-.26.13-.39s.17-.46.26-.7.22-.56.34-.83a0,0,0,0,0,0,0c.12-.28.25-.57.38-.85s.26-.56.4-.83l.41-.79c.18-.33.36-.64.55-1s.25-.41.37-.61l.06-.09c.15-.24.3-.48.46-.71l0,0,.47-.69.12-.16.45-.59A28.12,28.12,0,0,1,30.17,61l.5-.49c.26-.23.51-.47.77-.69l.68-.58c.21-.18.43-.35.65-.52l.16-.12.65-.48.75-.53.78-.5c.26-.16.52-.32.79-.47A28.3,28.3,0,0,0,31.83,71.3c0,15.76,12.82,21.2,28.59,21.2H153.2c15.51,0,17.35-8.5,17.22-15L174,81.82A18.21,18.21,0,0,1,176.85,91.61Z"/><ellipse class="cls-16" cx="324.17" cy="463.44" rx="90.85" ry="7.41"/><path class="cls-2" d="M504.26,365.21a28.74,28.74,0,1,0-51.38-25.56,18.77,18.77,0,0,0-28.55,21.08,22.13,22.13,0,0,0,4.15,43.87h72.57a19.83,19.83,0,0,0,3.21-39.39Z"/><path class="cls-3" d="M520.87,384.77a19.83,19.83,0,0,1-19.82,19.83H428.48A22.14,22.14,0,0,1,408,374a22.13,22.13,0,0,0,20.45,13.66h72.57A19.8,19.8,0,0,0,519,376.31,19.61,19.61,0,0,1,520.87,384.77Z"/><path class="cls-2" d="M125.53,321.77l3.08.75a7.92,7.92,0,0,0,6.7-1.41l2.52-1.93a1.85,1.85,0,0,1,2.92,1.9l-.74,3.08a7.94,7.94,0,0,0,1.41,6.71l1.93,2.52a1.85,1.85,0,0,1-1.91,2.92l-3.08-.75a8,8,0,0,0-6.7,1.42l-2.52,1.93a1.85,1.85,0,0,1-2.92-1.91l.74-3.08a7.92,7.92,0,0,0-1.41-6.7l-1.93-2.52A1.86,1.86,0,0,1,125.53,321.77Z"/><path class="cls-2" d="M140.2,349.28l1.91.46a4.88,4.88,0,0,0,4.14-.88l1.56-1.19a1.14,1.14,0,0,1,1.8,1.18l-.46,1.91a4.88,4.88,0,0,0,.88,4.14l1.19,1.55a1.15,1.15,0,0,1-1.18,1.81l-1.9-.46a4.93,4.93,0,0,0-4.15.87l-1.55,1.2a1.15,1.15,0,0,1-1.81-1.18l.46-1.91a4.91,4.91,0,0,0-.87-4.14l-1.2-1.56A1.14,1.14,0,0,1,140.2,349.28Z"/><path class="cls-7" d="M351.11,164.41l2.18,2.31a8,8,0,0,0,6.39,2.47l3.16-.25a1.86,1.86,0,0,1,1.41,3.2l-2.31,2.17a8,8,0,0,0-2.47,6.39l.25,3.17a1.85,1.85,0,0,1-3.19,1.41L354.35,183A8,8,0,0,0,348,180.5l-3.16.24a1.85,1.85,0,0,1-1.42-3.19l2.31-2.17a7.92,7.92,0,0,0,2.47-6.39l-.24-3.17A1.85,1.85,0,0,1,351.11,164.41Z"/><path class="cls-2" d="M103.14,172.48l1.65,2.71a8,8,0,0,0,5.74,3.74l3.14.41a1.85,1.85,0,0,1,.72,3.42l-2.71,1.65a8,8,0,0,0-3.74,5.74l-.41,3.14a1.85,1.85,0,0,1-3.42.72l-1.65-2.7a7.93,7.93,0,0,0-5.74-3.74l-3.14-.42a1.85,1.85,0,0,1-.72-3.42l2.7-1.65a7.93,7.93,0,0,0,3.74-5.74l.42-3.14A1.85,1.85,0,0,1,103.14,172.48Z"/><path class="cls-7" d="M96.54,209.16l1,1.58a4.61,4.61,0,0,0,3.34,2.18l1.84.25a1.08,1.08,0,0,1,.42,2l-1.58,1a4.61,4.61,0,0,0-2.18,3.35l-.25,1.83a1.08,1.08,0,0,1-2,.42l-1-1.58A4.67,4.67,0,0,0,92.8,218L91,217.72a1.08,1.08,0,0,1-.42-2l1.58-1a4.6,4.6,0,0,0,2.18-3.34l.24-1.84A1.08,1.08,0,0,1,96.54,209.16Z"/><path class="cls-7" d="M551.14,187.07l1,1.58a4.67,4.67,0,0,0,3.34,2.18l1.84.24a1.08,1.08,0,0,1,.42,2l-1.58,1a4.61,4.61,0,0,0-2.18,3.35l-.25,1.83a1.08,1.08,0,0,1-2,.42l-1-1.57a4.61,4.61,0,0,0-3.35-2.18l-1.83-.25a1.08,1.08,0,0,1-.42-2l1.58-1a4.64,4.64,0,0,0,2.18-3.35l.24-1.83A1.08,1.08,0,0,1,551.14,187.07Z"/><path class="cls-2" d="M331.61,251.88l1,1.58a4.61,4.61,0,0,0,3.35,2.18l1.83.24a1.09,1.09,0,0,1,.42,2l-1.58,1a4.67,4.67,0,0,0-2.18,3.35l-.24,1.83a1.08,1.08,0,0,1-2,.42l-1-1.58a4.57,4.57,0,0,0-3.34-2.18l-1.83-.24a1.08,1.08,0,0,1-.43-2l1.58-1a4.61,4.61,0,0,0,2.18-3.34l.25-1.84A1.08,1.08,0,0,1,331.61,251.88Z"/><path class="cls-2" d="M546,211.65l1.38,2.25a6.59,6.59,0,0,0,4.77,3.11l2.61.35a1.53,1.53,0,0,1,.6,2.83l-2.25,1.38a6.56,6.56,0,0,0-3.11,4.76l-.35,2.62a1.53,1.53,0,0,1-2.83.6l-1.38-2.25a6.58,6.58,0,0,0-4.77-3.11l-2.61-.35a1.53,1.53,0,0,1-.6-2.83l2.25-1.38a6.58,6.58,0,0,0,3.11-4.77l.35-2.61A1.53,1.53,0,0,1,546,211.65Z"/><rect class="cls-13" x="202.44" y="177.88" width="9.43" height="45.52" rx="2.9" ry="2.9" transform="translate(-68.21 286.31) rotate(-61.37)"/><rect class="cls-2" x="202.02" y="171.48" width="9.43" height="45.52" rx="2.9" ry="2.9" transform="translate(-62.82 282.61) rotate(-61.37)"/><rect class="cls-13" x="140.41" y="192.68" width="9.43" height="45.52" rx="2.9" ry="2.9" transform="translate(-97.75 307.57) rotate(-76.81)"/><rect class="cls-2" x="138.3" y="186.63" width="9.43" height="45.52" rx="2.9" ry="2.9" transform="translate(-93.49 300.85) rotate(-76.81)"/><g class="cls-9"><path class="cls-10" d="M153.17,215.9h-3.28a12.07,12.07,0,1,1,0-24.14h3.28a12.07,12.07,0,1,1,0,24.14Z"/></g></g></g></svg>