<?xml version="1.0" encoding="utf-8"?>
<!-- Generator: Adobe Illustrator 22.1.0, SVG Export Plug-In . SVG Version: 6.00 Build 0)  -->
<svg version="1.1" id="Calque_1" xmlns="http://www.w3.org/2000/svg" xmlns:xlink="http://www.w3.org/1999/xlink" x="0px" y="0px"
	 viewBox="0 0 280 89.8" style="enable-background:new 0 0 280 89.8;" xml:space="preserve">
<style type="text/css">
	.st0{fill:#007DED;}
	.st1{fill:#FFF5FB;}
	.st2{opacity:0.3;fill:#D1D1D1;}
	.st3{fill:#ECEDEE;}
	.st4{fill:#FFFFFF;}
	.st5{fill:#F15A24;}
	.st6{opacity:0.1;}
	.st7{fill:#F7931E;}
	.st8{filter:url(#Adobe_OpacityMaskFilter);}
	.st9{mask:url(#SVGID_1_);}
	.st10{opacity:0.7;}
	.st11{filter:url(#Adobe_OpacityMaskFilter_1_);}
	.st12{mask:url(#SVGID_2_);}
	.st13{fill:none;}
	.st14{fill:#E3A078;}
	.st15{opacity:0.5;fill:#E3A078;}
	.st16{fill:#903B0D;}
	.st17{opacity:0.5;fill:#E54595;}
	.st18{opacity:0.5;}
	.st19{fill:#F2C0DC;}
	.st20{fill:none;stroke:#FFFFFF;stroke-width:24.6413;stroke-linecap:round;stroke-miterlimit:10;}
	.st21{opacity:0.25;}
	.st22{opacity:0.3;clip-path:url(#SVGID_4_);fill:#7B7B7B;}
	.st23{opacity:0.3;fill:#7B7B7B;}
	.st24{fill:#FFE9F6;}
	.st25{clip-path:url(#SVGID_6_);fill:#903B0D;}
	.st26{opacity:0.5;clip-path:url(#SVGID_6_);fill:#903B0D;}
	.st27{fill:#C1A3A3;}
	.st28{opacity:0.2;fill:#251826;}
	.st29{fill:#2C3E50;}
	.st30{opacity:0.3;clip-path:url(#SVGID_8_);fill:#7B7B7B;}
	.st31{clip-path:url(#SVGID_10_);fill:#903B0D;}
	.st32{opacity:0.5;clip-path:url(#SVGID_10_);fill:#903B0D;}
	.st33{opacity:0.3;}
	.st34{fill:url(#SVGID_11_);}
	.st35{fill:url(#SVGID_12_);}
	.st36{fill:url(#SVGID_13_);}
	.st37{fill:none;stroke:#FFFFFF;stroke-width:24.625;stroke-linecap:round;stroke-miterlimit:10;}
	.st38{opacity:0.5;fill:#903B0D;}
</style>
<g>
	<g>
		<g>
			<path class="st4" d="M230.2,11.1c-2.7,0-4.8,2.2-4.8,4.8v8c0,2.7,2.2,4.8,4.8,4.8h21.6v15.6c0,10.8-8.4,19.6-18.7,19.6
				s-18.7-8.8-18.7-19.6c0-2.7-2.2-4.8-4.8-4.8h-8c-2.7,0-4.8,2.2-4.8,4.8c0,20.7,16.3,37.5,36.3,37.5s36.3-16.8,36.3-37.5V11.1
				H230.2z"/>
		</g>
		<g>
			<circle class="st4" cx="205.5" cy="19.9" r="8.8"/>
		</g>
	</g>
	<g>
		<path class="st4" d="M12.4,77.9V49.3H21v28.6H12.4z"/>
		<path class="st4" d="M25.7,77.9V49.3h17.4c5.9,0,8.5,4,8.5,7.3c0,3.6-2.1,6-4.9,6.6c3.1,0.5,5.5,3.3,5.5,7c0,4-2.7,7.8-8.5,7.8
			H25.7z M42.8,58.2c0-1-0.8-1.6-1.7-1.6h-6.7v3.3H41C41.9,59.9,42.8,59.2,42.8,58.2z M43.3,68.9c0-1-0.8-1.8-2-1.8h-7v3.6h7
			C42.5,70.7,43.3,70,43.3,68.9z"/>
		<path class="st4" d="M61.3,77.9V56.9h-7.7v-7.6h24v7.6H70v21.1H61.3z"/>
		<path class="st4" d="M97.2,77.9l-1-3.3H85.9l-1,3.3H75l10.6-28.6h10.9l10.6,28.6H97.2z M91.1,57.8L88.2,67h5.7L91.1,57.8z"/>
		<path class="st4" d="M112.2,77.9V56.9h-7.7v-7.6h24v7.6h-7.6v21.1H112.2z"/>
		<path class="st4" d="M131.6,77.9V49.3h21.7v7.6h-13.1v2.8H153v7.6h-12.8v3.1h13.1v7.6H131.6z"/>
		<path class="st4" d="M176.4,77.9l-10.6-14.5v14.5h-8.7V49.3h8.9l10,13.6V49.3h8.7v28.6H176.4z"/>
	</g>
	<g>
		<path class="st4" d="M12.1,43.1l4.1-7.8c1.1,0.8,2.6,1.5,4.3,1.5c2.2,0,3.7-1.4,3.7-3.8V11.5h10.2v21.7c0,8.6-5.2,12.6-13,12.6
			C18.2,45.8,14.7,45.1,12.1,43.1z"/>
		<path class="st4" d="M38.2,28.4c0-10.4,8-17.4,18.4-17.4C67,11,75,18.1,75,28.4c0,10.4-8,17.4-18.4,17.4
			C46.2,45.8,38.2,38.8,38.2,28.4z M64.7,28.4c0-4.7-3.2-8.4-8.1-8.4c-4.9,0-8.1,3.7-8.1,8.4c0,4.7,3.2,8.4,8.1,8.4
			C61.5,36.8,64.7,33.1,64.7,28.4z"/>
		<path class="st4" d="M100.9,45.2V32.3H88.9v12.9H78.7V11.5h10.2v11.9h12.1V11.5h10.2v33.7H100.9z"/>
		<path class="st4" d="M139.1,45.2l-1.2-3.9h-12.1l-1.2,3.9H113l12.4-33.7h12.8l12.4,33.7H139.1z M131.8,21.5l-3.3,10.9h6.7
			L131.8,21.5z"/>
		<path class="st4" d="M175.1,45.2l-12.4-17.1v17.1h-10.2V11.5h10.5l11.7,16v-16h10.2v33.7H175.1z"/>
	</g>
</g>
</svg>
