<svg id="Calque_1" data-name="Calque 1" xmlns="http://www.w3.org/2000/svg" xmlns:xlink="http://www.w3.org/1999/xlink" viewBox="0 0 453.27 428.35"><defs><style>.cls-1{fill:#fff;}.cls-2{fill:#f7931e;}.cls-3{mask:url(#mask);}.cls-4{fill:#007ded;}.cls-5{opacity:0.7;}.cls-6{fill:#f15a24;}</style><mask id="mask" x="-278.5" y="-178.57" width="874.52" height="874.52" maskUnits="userSpaceOnUse"><path class="cls-1" d="M225.11,54.61A23.81,23.81,0,0,0,201.32,78.4v39.23a23.81,23.81,0,0,0,23.79,23.79H331.83v77c0,53.27-41.39,96.61-92.26,96.61S147.3,271.7,147.3,218.41a23.81,23.81,0,0,0-23.79-23.79H84a23.82,23.82,0,0,0-23.79,23.81c0,102,80.4,185,179.23,185s179.24-83,179.24-185V54.61Z"/><circle class="cls-1" cx="103.57" cy="98.02" r="43.41"/></mask></defs><title>logo_illustration_UI</title><rect class="cls-2" x="-4.38" y="-4.14" width="462.03" height="436.63"/><g class="cls-3"><rect class="cls-4" x="-380.32" y="69.53" width="701.57" height="1.75" transform="translate(-58.43 -0.26) rotate(-45)"/><path class="cls-4" d="M217.89-177.94l.93.92L-277,318.75l-.92-.92L217.89-177.94m0-.63-.31.31L-278.19,317.52l-.31.31.31.31.92.92.31.32.32-.32L219.13-176.71l.31-.31-.31-.31-.92-.93-.32-.31Z"/><rect class="cls-4" x="-374.52" y="75.32" width="701.57" height="1.75" transform="translate(-60.83 5.53) rotate(-45)"/><path class="cls-4" d="M223.69-172.15l.92.92L-271.16,324.54l-.92-.92L223.69-172.15m0-.63-.32.32L-272.4,323.31l-.31.31.31.32.92.92.32.31.31-.31L224.92-170.91l.32-.32-.32-.31-.92-.92-.31-.32Z"/><rect class="cls-4" x="-368.73" y="81.12" width="701.57" height="1.75" transform="translate(-63.23 11.33) rotate(-45)"/><path class="cls-4" d="M229.48-166.36l.92.93L-265.37,330.34l-.92-.92L229.48-166.36m0-.62-.31.31L-266.6,329.1l-.32.32.32.31.92.92.31.31.31-.31L230.72-165.12l.31-.31-.31-.32-.93-.92-.31-.31Z"/><rect class="cls-4" x="-362.94" y="86.91" width="701.57" height="1.75" transform="translate(-65.63 17.12) rotate(-45)"/><path class="cls-4" d="M235.27-160.56l.93.92L-259.58,336.13l-.92-.92L235.27-160.56m0-.63-.31.31L-260.81,334.9l-.31.31.31.31.92.92.31.32.32-.32L236.51-159.33l.31-.31-.31-.31-.92-.93-.32-.31Z"/><rect class="cls-4" x="-357.14" y="92.7" width="701.57" height="1.75" transform="translate(-68.03 22.91) rotate(-45)"/><path class="cls-4" d="M241.07-154.77l.92.92L-253.78,341.92l-.92-.92L241.07-154.77m0-.63-.32.32L-255,340.69l-.31.31.31.32.92.92.32.31.31-.31L242.3-153.53l.32-.32-.32-.31-.92-.92-.31-.32Z"/><rect class="cls-4" x="-351.35" y="98.5" width="701.57" height="1.75" transform="translate(-70.43 28.71) rotate(-45)"/><path class="cls-4" d="M246.86-149l.92.93L-248,347.72l-.92-.92L246.86-149m0-.62-.31.31L-249.22,346.48l-.32.32.32.31.92.92.31.31.31-.31L248.1-147.74l.31-.31-.31-.32-.93-.92-.31-.31Z"/><rect class="cls-4" x="-345.56" y="104.29" width="701.57" height="1.75" transform="translate(-72.83 34.5) rotate(-45)"/><path class="cls-4" d="M252.65-143.18l.93.92L-242.2,353.51l-.92-.92L252.65-143.18m0-.63-.31.31L-243.43,352.28l-.31.31.31.31.92.92.31.32.32-.32L253.89-141.95l.31-.31-.31-.31-.92-.93-.32-.31Z"/><rect class="cls-4" x="-339.76" y="110.08" width="701.57" height="1.75" transform="translate(-75.23 40.29) rotate(-45)"/><path class="cls-4" d="M258.45-137.39l.92.92L-236.4,359.3l-.92-.92L258.45-137.39m0-.63-.32.32L-237.64,358.07l-.31.31.31.32.92.92.32.31.31-.31L259.68-136.15l.32-.32-.32-.31-.92-.92-.31-.32Z"/><rect class="cls-4" x="-333.97" y="115.88" width="701.57" height="1.75" transform="translate(-77.63 46.09) rotate(-45)"/><path class="cls-4" d="M264.24-131.6l.92.93L-230.61,365.1l-.92-.92L264.24-131.6m0-.62-.31.31L-231.84,363.86l-.32.32.32.31.92.92.31.31.31-.31L265.48-130.36l.31-.31-.31-.32-.93-.92-.31-.31Z"/><rect class="cls-4" x="-328.18" y="121.67" width="701.57" height="1.75" transform="translate(-80.03 51.88) rotate(-45)"/><path class="cls-4" d="M270-125.8l.93.92L-224.82,370.89l-.92-.92L270-125.8m0-.63-.31.31L-226,369.66l-.31.31.31.31.92.92.31.32.32-.32L271.27-124.57l.31-.31-.31-.31-.92-.93-.32-.31Z"/><rect class="cls-4" x="-322.38" y="127.46" width="701.57" height="1.75" transform="translate(-82.43 57.67) rotate(-45)"/><path class="cls-4" d="M275.83-120l.92.92L-219,376.68l-.92-.92L275.83-120m0-.63-.32.32L-220.26,375.45l-.31.31.31.32.92.92.32.31.31-.31L277.06-118.77l.32-.32-.32-.31-.92-.92-.31-.32Z"/><rect class="cls-4" x="-316.59" y="133.26" width="701.57" height="1.75" transform="translate(-84.83 63.47) rotate(-45)"/><path class="cls-4" d="M281.62-114.22l.92.93L-213.23,382.48l-.92-.92L281.62-114.22m0-.62-.31.31L-214.46,381.24l-.32.32.32.31.92.92.31.31.31-.31L282.86-113l.31-.31-.31-.32-.93-.92-.31-.31Z"/><rect class="cls-4" x="-310.8" y="139.05" width="701.57" height="1.75" transform="translate(-87.23 69.26) rotate(-45)"/><path class="cls-4" d="M287.41-108.42l.93.92L-207.44,388.27l-.92-.92L287.41-108.42m0-.63-.31.31L-208.67,387l-.31.31.31.31.92.92.31.32.32-.32L288.65-107.19l.31-.31-.31-.31-.92-.93-.32-.31Z"/><rect class="cls-4" x="-305" y="144.84" width="701.57" height="1.75" transform="translate(-89.63 75.05) rotate(-45)"/><path class="cls-4" d="M293.21-102.63l.92.92L-201.64,394.06l-.92-.92L293.21-102.63m0-.63-.32.32L-202.88,392.83l-.31.31.31.32.92.92.32.31.31-.31L294.44-101.39l.32-.32-.32-.31-.92-.92-.31-.32Z"/><rect class="cls-4" x="-299.21" y="150.64" width="701.57" height="1.75" transform="translate(-92.03 80.85) rotate(-45)"/><path class="cls-4" d="M299-96.84l.92.93L-195.85,399.86l-.92-.92L299-96.84m0-.62-.31.31L-197.08,398.62l-.32.32.32.31.92.92.31.32.31-.32L300.24-95.6l.31-.31-.31-.32-.92-.92-.32-.31Z"/><rect class="cls-4" x="-293.42" y="156.43" width="701.57" height="1.75" transform="translate(-94.43 86.64) rotate(-45)"/><path class="cls-4" d="M304.79-91l.93.92L-190.06,405.65l-.92-.92L304.79-91m0-.63-.31.31L-191.29,404.42l-.31.31.31.31.92.92.31.32.32-.32L306-89.81l.31-.31-.31-.31-.92-.93-.32-.31Z"/><rect class="cls-4" x="-287.62" y="162.22" width="701.57" height="1.75" transform="translate(-96.83 92.43) rotate(-45)"/><path class="cls-4" d="M310.59-85.25l.92.92L-184.26,411.45l-.92-.93L310.59-85.25m0-.63-.32.32L-185.5,410.21l-.31.31.31.32.92.92.32.31.31-.31L311.82-84l.32-.32-.32-.31-.92-.92-.31-.32Z"/><rect class="cls-4" x="-281.83" y="168.02" width="701.57" height="1.75" transform="translate(-99.23 98.23) rotate(-45)"/><path class="cls-4" d="M316.38-79.46l.92.93L-178.47,417.24l-.92-.92L316.38-79.46m0-.62-.31.31L-179.7,416l-.32.32.32.31.92.92.31.32.31-.32L317.62-78.22l.31-.31-.31-.32-.93-.92-.31-.31Z"/><rect class="cls-4" x="-276.04" y="173.81" width="701.57" height="1.75" transform="translate(-101.63 104.02) rotate(-45)"/><path class="cls-4" d="M322.17-73.66l.93.92L-172.68,423l-.92-.92L322.17-73.66m0-.63-.31.31L-173.91,421.8l-.31.31.31.31.92.93.31.31.32-.31L323.41-72.43l.31-.31-.31-.31-.92-.93-.32-.31Z"/><rect class="cls-4" x="-270.24" y="179.61" width="701.57" height="1.75" transform="translate(-104.03 109.81) rotate(-45)"/><path class="cls-4" d="M328-67.87l.92.92L-166.88,428.83l-.92-.93L328-67.87m0-.63-.32.32L-168.12,427.59l-.31.31.31.32.92.92.32.31.31-.31L329.2-66.63l.32-.32-.32-.31-.92-.92L328-68.5Z"/><rect class="cls-4" x="-264.45" y="185.4" width="701.57" height="1.75" transform="translate(-106.43 115.61) rotate(-45)"/><path class="cls-4" d="M333.76-62.08l.92.93L-161.09,434.62l-.92-.92L333.76-62.08m0-.62-.31.31L-162.32,433.38l-.32.32.32.31.92.92.31.32.31-.32L335-60.84l.31-.31-.31-.32-.92-.92-.32-.31Z"/><rect class="cls-4" x="-258.66" y="191.19" width="701.57" height="1.75" transform="translate(-108.83 121.4) rotate(-45)"/><path class="cls-4" d="M339.56-56.28l.92.92L-155.3,440.41l-.92-.92L339.56-56.28m0-.63-.32.31L-156.53,439.18l-.31.31.31.31.92.93.31.31.32-.31L340.79-55l.31-.31-.31-.31-.92-.93-.31-.31Z"/><rect class="cls-4" x="-252.86" y="196.98" width="701.57" height="1.75" transform="translate(-111.23 127.19) rotate(-45)"/><path class="cls-4" d="M345.35-50.49l.92.92L-149.5,446.21l-.92-.93L345.35-50.49m0-.63-.32.32L-150.74,445l-.31.31.31.32.92.92.32.31.31-.31L346.58-49.25l.32-.32-.32-.31-.92-.92-.31-.32Z"/><rect class="cls-4" x="-247.07" y="202.78" width="701.57" height="1.75" transform="translate(-113.63 132.99) rotate(-45)"/><path class="cls-4" d="M351.14-44.7l.92.93L-143.71,452l-.92-.92L351.14-44.7m0-.62-.31.31L-144.94,450.76l-.32.32.32.31.92.92.31.32.31-.32L352.38-43.46l.31-.31-.31-.32-.93-.92-.31-.31Z"/><rect class="cls-4" x="-241.28" y="208.57" width="701.57" height="1.75" transform="translate(-116.03 138.78) rotate(-45)"/><path class="cls-4" d="M356.93-38.9l.93.92L-137.92,457.79l-.92-.92L356.93-38.9m0-.63-.31.31L-139.15,456.56l-.31.31.31.31.92.93.31.31.32-.31L358.17-37.67l.31-.31-.31-.31-.92-.93-.32-.31Z"/><rect class="cls-4" x="-235.48" y="214.37" width="701.57" height="1.75" transform="translate(-118.43 144.57) rotate(-45)"/><path class="cls-4" d="M362.73-33.11l.92.92L-132.12,463.59l-.92-.93L362.73-33.11m0-.63-.31.32L-133.36,462.35l-.31.31.31.32.92.92.32.31.31-.31L364-31.87l.32-.32L364-32.5l-.92-.92-.31-.32Z"/><rect class="cls-4" x="-229.69" y="220.16" width="701.57" height="1.75" transform="translate(-120.82 150.37) rotate(-45)"/><path class="cls-4" d="M368.52-27.32l.92.93L-126.33,469.38l-.92-.92L368.52-27.32m0-.62-.31.31L-127.56,468.14l-.32.32.32.31.92.92.31.32.31-.32L369.76-26.08l.31-.31-.31-.32-.92-.92-.32-.31Z"/><rect class="cls-4" x="-223.9" y="225.95" width="701.57" height="1.75" transform="translate(-123.22 156.16) rotate(-45)"/><path class="cls-4" d="M374.32-21.52l.92.92L-120.54,475.17l-.92-.92L374.32-21.52m0-.63-.32.31L-121.77,473.94l-.31.31.31.31.92.93.31.31.32-.31L375.55-20.29l.31-.31-.31-.31-.92-.93-.31-.31Z"/><rect class="cls-4" x="-218.1" y="231.75" width="701.57" height="1.75" transform="translate(-125.62 161.95) rotate(-45)"/><path class="cls-4" d="M380.11-15.73l.92.92L-114.74,481l-.92-.93L380.11-15.73m0-.63-.31.32L-116,479.73l-.31.31.31.32.92.92.32.31.31-.31L381.34-14.49l.32-.32-.32-.31-.92-.92-.31-.32Z"/><rect class="cls-4" x="-212.31" y="237.54" width="701.57" height="1.75" transform="translate(-128.02 167.75) rotate(-45)"/><path class="cls-4" d="M385.9-9.93l.92.92L-108.95,486.76l-.92-.92L385.9-9.93m0-.63-.31.31L-110.18,485.52l-.32.32.32.31.92.92.31.32.31-.32L387.14-8.7l.31-.31-.31-.32-.92-.92-.32-.31Z"/><rect class="cls-4" x="-206.52" y="243.33" width="701.57" height="1.75" transform="translate(-130.42 173.54) rotate(-45)"/><path class="cls-4" d="M391.69-4.14l.93.92L-103.16,492.55l-.92-.92L391.69-4.14m0-.63-.31.32L-104.39,491.32l-.31.31.31.31.92.93.31.31.32-.31L392.93-2.91l.31-.31-.31-.31L392-4.45l-.32-.32Z"/><rect class="cls-4" x="-200.72" y="249.13" width="701.57" height="1.75" transform="translate(-132.82 179.33) rotate(-45)"/><path class="cls-4" d="M397.49,1.65l.92.92L-97.36,498.35l-.92-.93L397.49,1.65m0-.62-.32.31L-98.6,497.11l-.31.31.31.32.92.92.32.31.31-.31L398.72,2.89l.32-.32-.32-.31-.92-.92L397.49,1Z"/><rect class="cls-4" x="-194.93" y="254.92" width="701.57" height="1.75" transform="translate(-135.22 185.13) rotate(-45)"/><path class="cls-4" d="M403.28,7.45l.92.92L-91.57,504.14l-.92-.92L403.28,7.45m0-.63-.31.31L-92.8,502.9l-.32.32.32.31.92.92.31.32.31-.32L404.52,8.68l.31-.31-.31-.32-.92-.92-.32-.31Z"/><rect class="cls-4" x="-189.14" y="260.71" width="701.57" height="1.75" transform="translate(-137.62 190.92) rotate(-45)"/><path class="cls-4" d="M409.08,13.24l.92.92L-85.78,509.93l-.92-.92L409.08,13.24m0-.63-.32.32L-87,508.7l-.31.31.31.31.92.93.31.31.32-.31L410.31,14.47l.31-.31-.31-.31-.92-.92-.31-.32Z"/><rect class="cls-4" x="-183.34" y="266.51" width="701.57" height="1.75" transform="translate(-140.02 196.71) rotate(-45)"/><path class="cls-4" d="M414.87,19l.92.92L-80,515.73l-.92-.93L414.87,19m0-.62-.31.31L-81.22,514.49l-.31.31.31.32.92.92.32.31.31-.31L416.1,20.27l.32-.32-.32-.31-.92-.92-.31-.31Z"/><rect class="cls-4" x="-177.55" y="272.3" width="701.57" height="1.75" transform="translate(-142.42 202.51) rotate(-45)"/><path class="cls-4" d="M420.66,24.83l.92.92L-74.19,521.52l-.92-.92L420.66,24.83m0-.63-.31.31L-75.42,520.28l-.32.32.32.31.92.92.31.32.32-.32L421.9,26.06l.31-.31-.31-.32-.92-.92-.32-.31Z"/><rect class="cls-4" x="-171.76" y="278.09" width="701.57" height="1.75" transform="translate(-144.82 208.3) rotate(-45)"/><path class="cls-4" d="M426.46,30.62l.92.92L-68.4,527.31l-.92-.92L426.46,30.62m0-.63-.32.32L-69.63,526.08l-.31.31.31.31.92.93.31.31.32-.31L427.69,31.85l.31-.31-.31-.31-.92-.92-.31-.32Z"/><rect class="cls-4" x="-165.96" y="283.89" width="701.57" height="1.75" transform="translate(-147.22 214.09) rotate(-45)"/><path class="cls-4" d="M432.25,36.41l.92.92L-62.6,533.11l-.92-.93L432.25,36.41m0-.62-.31.31L-63.84,531.87l-.31.31.31.32.92.92.32.31.31-.31L433.48,37.65l.32-.32-.32-.31-.92-.92-.31-.31Z"/><rect class="cls-4" x="-160.17" y="289.68" width="701.57" height="1.75" transform="translate(-149.62 219.89) rotate(-45)"/><path class="cls-4" d="M438,42.21l.92.92L-56.81,538.9l-.92-.92L438,42.21m0-.63-.31.31L-58,537.66l-.32.32.32.31.92.92.31.32.31-.32L439.28,43.44l.31-.31-.31-.32-.92-.92-.32-.31Z"/><rect class="cls-4" x="-154.38" y="295.47" width="701.57" height="1.75" transform="translate(-152.02 225.68) rotate(-45)"/><path class="cls-4" d="M443.84,48l.92.92L-51,544.69l-.92-.92L443.84,48m0-.63-.32.32L-52.25,543.46l-.31.31.31.31.92.93.31.31.32-.31L445.07,49.23l.31-.31-.31-.31-.92-.92-.31-.32Z"/><rect class="cls-4" x="-148.58" y="301.27" width="701.57" height="1.75" transform="translate(-154.42 231.47) rotate(-45)"/><path class="cls-4" d="M449.63,53.79l.92.92L-45.22,550.49l-.92-.93L449.63,53.79m0-.62-.31.31L-46.46,549.25l-.31.31.31.32.92.92.32.31.31-.31L450.86,55l.32-.32-.32-.31-.92-.92-.31-.31Z"/><rect class="cls-4" x="-142.79" y="307.06" width="701.57" height="1.75" transform="translate(-156.82 237.27) rotate(-45)"/><path class="cls-4" d="M455.42,59.59l.92.92L-39.43,556.28l-.92-.92L455.42,59.59m0-.63-.31.31L-40.66,555l-.32.32.32.31.92.92.31.32.31-.32L456.66,60.82l.31-.31-.31-.32-.92-.92-.32-.31Z"/><rect class="cls-4" x="-137" y="312.85" width="701.57" height="1.75" transform="translate(-159.22 243.06) rotate(-45)"/><path class="cls-4" d="M461.22,65.38l.92.92L-33.63,562.07l-.93-.92L461.22,65.38m0-.63-.32.32L-34.87,560.84l-.31.31.31.31.92.93.32.31.31-.31L462.45,66.61l.31-.31-.31-.31-.92-.92-.31-.32Z"/><rect class="cls-4" x="-131.2" y="318.65" width="701.57" height="1.75" transform="translate(-161.62 248.85) rotate(-45)"/><path class="cls-4" d="M467,71.17l.92.92L-27.84,567.87l-.92-.93L467,71.17m0-.62-.31.31L-29.08,566.63l-.31.31.31.32.92.92.32.31.31-.31L468.24,72.41l.32-.32-.32-.31-.92-.92-.31-.31Z"/><rect class="cls-4" x="-125.41" y="324.44" width="701.57" height="1.75" transform="translate(-164.02 254.65) rotate(-45)"/><path class="cls-4" d="M472.8,77l.92.92L-22,573.66l-.92-.92L472.8,77m0-.63-.31.31L-23.28,572.42l-.32.32.32.31.92.92.31.32.31-.32L474,78.2l.31-.31-.31-.32-.92-.92-.32-.31Z"/><rect class="cls-4" x="-119.62" y="330.23" width="701.57" height="1.75" transform="translate(-166.42 260.44) rotate(-45)"/><path class="cls-4" d="M478.6,82.76l.92.92L-16.26,579.45l-.92-.92L478.6,82.76m0-.63-.32.32L-17.49,578.22l-.31.31.31.31.92.93.31.31.32-.31L479.83,84l.31-.31-.31-.31-.92-.92-.31-.32Z"/><rect class="cls-4" x="-113.82" y="336.03" width="701.57" height="1.75" transform="translate(-168.82 266.23) rotate(-45)"/><path class="cls-4" d="M484.39,88.55l.92.92L-10.46,585.25l-.92-.93L484.39,88.55m0-.62-.31.31L-11.7,584l-.31.31.31.32.92.92.32.31.31-.31L485.62,89.79l.32-.32-.32-.31-.92-.92-.31-.31Z"/><rect class="cls-4" x="-108.03" y="341.82" width="701.57" height="1.75" transform="translate(-171.22 272.03) rotate(-45)"/><path class="cls-4" d="M490.18,94.35l.92.92L-4.67,591l-.92-.92L490.18,94.35m0-.63-.31.31L-5.9,589.8l-.32.32.32.31.92.92.31.32.32-.32L491.42,95.58l.31-.31-.31-.32L490.5,94l-.32-.31Z"/><rect class="cls-4" x="-102.24" y="347.61" width="701.57" height="1.75" transform="translate(-173.62 277.82) rotate(-45)"/><path class="cls-4" d="M496,100.14l.92.92L1.13,596.83l-.93-.92L496,100.14m0-.63-.32.32L-.11,595.6l-.31.31.31.31.92.93.32.31.31-.31L497.21,101.37l.31-.31-.31-.31-.92-.92-.31-.32Z"/><rect class="cls-4" x="-96.44" y="353.41" width="701.57" height="1.75" transform="translate(-176.02 283.61) rotate(-45)"/><path class="cls-4" d="M501.77,105.93l.92.92L6.92,602.63,6,601.7,501.77,105.93m0-.62-.31.31L5.68,601.39l-.31.31.31.32.93.92.31.31.31-.31L503,107.17l.32-.32-.32-.31-.92-.92-.31-.31Z"/><rect class="cls-4" x="-90.65" y="359.2" width="701.57" height="1.75" transform="translate(-178.42 289.41) rotate(-45)"/><path class="cls-4" d="M507.56,111.73l.92.92L12.71,608.42l-.92-.92L507.56,111.73m0-.63-.31.31L11.48,607.18l-.32.32.32.31.92.92.31.32.32-.32L508.8,113l.31-.31-.31-.32-.92-.92-.32-.31Z"/><rect class="cls-4" x="-84.86" y="364.99" width="701.57" height="1.75" transform="translate(-180.82 295.2) rotate(-45)"/><path class="cls-4" d="M513.36,117.52l.92.92L18.51,614.21l-.93-.92L513.36,117.52m0-.63-.32.32L17.27,613l-.31.31.31.31.92.93.32.31.31-.31L514.59,118.75l.31-.31-.31-.31-.92-.92-.31-.32Z"/><rect class="cls-4" x="-79.06" y="370.79" width="701.57" height="1.75" transform="translate(-183.22 300.99) rotate(-45)"/><path class="cls-4" d="M519.15,123.31l.92.92L24.3,620l-.92-.93L519.15,123.31m0-.62-.31.31L23.06,618.77l-.31.31.31.32.92.92.32.31.31-.31L520.38,124.55l.32-.32-.32-.31-.92-.92-.31-.31Z"/><rect class="cls-4" x="-73.27" y="376.58" width="701.57" height="1.75" transform="translate(-185.62 306.79) rotate(-45)"/><path class="cls-4" d="M524.94,129.11l.92.92L30.09,625.8l-.92-.92L524.94,129.11m0-.63-.31.31L28.86,624.56l-.32.32.32.31.92.92.31.32.32-.32L526.18,130.34l.31-.31-.31-.32-.92-.92-.32-.31Z"/><rect class="cls-4" x="-67.47" y="382.37" width="701.57" height="1.75" transform="translate(-188.02 312.58) rotate(-45)"/><path class="cls-4" d="M530.74,134.9l.92.92L35.89,631.59l-.93-.92L530.74,134.9m0-.63-.32.32L34.65,630.36l-.31.31.31.31.92.93.32.31.31-.31L532,136.13l.31-.31-.31-.31-.92-.92-.31-.32Z"/><rect class="cls-4" x="-61.68" y="388.17" width="701.57" height="1.75" transform="translate(-190.42 318.37) rotate(-45)"/><path class="cls-4" d="M536.53,140.69l.92.92L41.68,637.39l-.92-.93L536.53,140.69m0-.62-.31.31L40.44,636.15l-.31.31.31.32.93.92.31.31.31-.31L537.76,141.93l.32-.32-.32-.31-.92-.92-.31-.31Z"/><rect class="cls-4" x="-55.89" y="393.96" width="701.57" height="1.75" transform="translate(-192.82 324.17) rotate(-45)"/><path class="cls-4" d="M542.32,146.49l.92.92L47.47,643.18l-.92-.92L542.32,146.49m0-.63-.31.31L46.24,641.94l-.32.32.32.31.92.92.31.32.32-.32L543.56,147.72l.31-.31-.31-.32-.92-.92-.32-.31Z"/><rect class="cls-4" x="-50.1" y="399.75" width="701.57" height="1.75" transform="translate(-195.22 329.96) rotate(-45)"/><path class="cls-4" d="M548.12,152.28l.92.92L53.27,649l-.93-.92L548.12,152.28m0-.63-.32.32L52,647.74l-.31.31.31.32.92.92.32.31.31-.31L549.35,153.51l.31-.31-.31-.31-.92-.92-.31-.32Z"/><rect class="cls-4" x="-44.3" y="405.55" width="701.57" height="1.75" transform="translate(-197.62 335.75) rotate(-45)"/><path class="cls-4" d="M553.91,158.07l.92.92L59.06,654.77l-.92-.92L553.91,158.07m0-.62-.31.31L57.82,653.53l-.31.32.31.31.93.92.31.31.31-.31L555.14,159.31l.32-.32-.32-.31-.92-.92-.31-.31Z"/><rect class="cls-4" x="-38.51" y="411.34" width="701.57" height="1.75" transform="translate(-200.01 341.55) rotate(-45)"/><path class="cls-4" d="M559.7,163.87l.92.92L64.85,660.56l-.92-.92L559.7,163.87m0-.63-.31.31L63.62,659.32l-.32.32.32.31.92.92.31.32.32-.32L560.94,165.1l.31-.31-.31-.32-.92-.92-.32-.31Z"/><rect class="cls-4" x="-32.71" y="417.13" width="701.57" height="1.75" transform="translate(-202.41 347.34) rotate(-45)"/><path class="cls-4" d="M565.5,169.66l.92.92L70.65,666.35l-.93-.92L565.5,169.66m0-.63-.32.32L69.41,665.12l-.31.31.31.32.92.92.32.31.31-.31L566.73,170.89l.31-.31-.31-.31-.92-.92-.31-.32Z"/><rect class="cls-4" x="-26.92" y="422.93" width="701.57" height="1.75" transform="translate(-204.81 353.13) rotate(-45)"/><path class="cls-4" d="M571.29,175.45l.92.92L76.44,672.15l-.92-.92L571.29,175.45m0-.62-.31.31L75.2,670.91l-.31.32.31.31.93.92.31.31.31-.31L572.52,176.69l.32-.32-.32-.31-.92-.92-.31-.31Z"/><rect class="cls-4" x="-21.13" y="428.72" width="701.57" height="1.75" transform="translate(-207.21 358.93) rotate(-45)"/><path class="cls-4" d="M577.08,181.25l.92.92L82.23,677.94l-.92-.92L577.08,181.25m0-.63-.31.31L81,676.71l-.32.31.32.31.92.92.31.32.32-.32L578.32,182.48l.31-.31-.31-.32-.92-.92-.32-.31Z"/><rect class="cls-4" x="-15.33" y="434.51" width="701.57" height="1.75" transform="translate(-209.61 364.72) rotate(-45)"/><path class="cls-4" d="M582.88,187l.92.92L88,683.73l-.93-.92L582.88,187m0-.63-.32.32L86.79,682.5l-.31.31.31.32.92.92.32.31.31-.31L584.11,188.27l.31-.31-.31-.31-.92-.92-.31-.32Z"/><rect class="cls-4" x="-9.54" y="440.31" width="701.57" height="1.75" transform="translate(-212.01 370.51) rotate(-45)"/><path class="cls-4" d="M588.67,192.83l.92.92L93.82,689.53l-.92-.92L588.67,192.83m0-.62-.31.31L92.58,688.29l-.31.32.31.31.93.92.31.31.31-.31L589.9,194.07l.32-.32-.32-.31-.92-.92-.31-.31Z"/><rect class="cls-4" x="-3.75" y="446.1" width="701.57" height="1.75" transform="translate(-214.41 376.31) rotate(-45)"/><path class="cls-4" d="M594.46,198.63l.92.92L99.61,695.32l-.92-.92L594.46,198.63m0-.63-.31.31L98.38,694.09l-.32.31.32.31.92.92.31.32.32-.32L595.7,199.86l.31-.31-.31-.32-.92-.92-.32-.31Z"/></g><g class="cls-5"><path class="cls-4" d="M223.22,51.91a22.9,22.9,0,0,0-22.87,22.88V112.5a22.9,22.9,0,0,0,22.87,22.88H325.83v74c0,51.22-39.8,92.89-88.71,92.89s-88.71-41.67-88.71-92.91a22.9,22.9,0,0,0-22.88-22.87h-38a22.9,22.9,0,0,0-22.87,22.89c0,98.09,77.3,177.9,172.32,177.9s172.33-79.81,172.33-177.9V51.91Z"/><circle class="cls-4" cx="106.37" cy="93.65" r="41.73"/></g><polygon class="cls-2" points="75.6 192.28 148.29 351.35 98.82 325.59 63.84 284.9 38.63 211.37 75.6 192.28"/><polygon class="cls-2" points="62.27 73.7 75.6 110.79 67.39 110.79 47.25 100.54 40.47 80.78 62.27 73.7"/><polygon class="cls-6" points="148.29 351.35 106.34 332.95 81.41 299.84 100.77 299.84 148.29 351.35"/><polygon class="cls-1" points="68.33 63.2 42.86 63.2 54.74 44.02 78.08 44.02 68.33 63.2"/><rect class="cls-1" x="177.78" y="44.02" width="21.81" height="19.18"/><rect class="cls-2" x="300.5" y="110.79" width="19.28" height="44.54"/><path d="M366.12,47.66v145.1c0,91.25-71.74,165.49-159.92,165.49S46.28,284,46.28,192.76a10.5,10.5,0,0,1,10.47-10.49h38a10.49,10.49,0,0,1,10.47,10.47c0,58.07,45.36,105.31,101.12,105.31s101.11-47.23,101.11-105.29V106.31h-115A10.49,10.49,0,0,1,182,95.84V58.13a10.49,10.49,0,0,1,10.47-10.47H366.12m12.41-12.41H192.46a22.91,22.91,0,0,0-22.88,22.88V95.84a22.91,22.91,0,0,0,22.88,22.88h102.6v74c0,51.22-39.79,92.88-88.7,92.88s-88.71-41.66-88.71-92.9a22.91,22.91,0,0,0-22.88-22.88h-38a22.91,22.91,0,0,0-22.88,22.9c0,98.09,77.31,177.89,172.33,177.89s172.33-79.8,172.33-177.89V35.25Z"/><path d="M75.6,47.66A29.33,29.33,0,1,1,46.28,77,29.36,29.36,0,0,1,75.6,47.66m0-12.41A41.74,41.74,0,1,0,117.34,77,41.78,41.78,0,0,0,75.6,35.25Z"/><path class="cls-4" d="M229.42,364.45c-91.6,0-166.13-77-166.13-171.69A16.7,16.7,0,0,1,80,176.07h38a16.69,16.69,0,0,1,16.67,16.67c0,54.65,42.58,99.11,94.91,99.11s94.91-44.45,94.91-99.09V112.51H215.68A16.68,16.68,0,0,1,199,95.84V58.13a16.68,16.68,0,0,1,16.67-16.67H395.54v151.3C395.54,287.43,321,364.45,229.42,364.45Z"/><path d="M389.34,47.66v145.1c0,91.25-71.74,165.49-159.92,165.49S69.5,284,69.5,192.76A10.49,10.49,0,0,1,80,182.27h38a10.48,10.48,0,0,1,10.46,10.47c0,58.07,45.37,105.31,101.12,105.31s101.12-47.23,101.12-105.29V106.31h-115a10.49,10.49,0,0,1-10.47-10.47V58.13a10.49,10.49,0,0,1,10.47-10.47H389.34m12.41-12.41H215.68A22.9,22.9,0,0,0,192.8,58.13V95.84a22.91,22.91,0,0,0,22.88,22.88h102.6v74c0,51.22-39.8,92.88-88.71,92.88s-88.71-41.66-88.71-92.9A22.91,22.91,0,0,0,118,169.86H80a22.91,22.91,0,0,0-22.87,22.9c0,98.09,77.3,177.89,172.33,177.89s172.33-79.8,172.33-177.89V35.25Z"/><circle class="cls-4" cx="98.82" cy="76.98" r="35.53"/><path d="M98.82,47.66A29.33,29.33,0,1,1,69.5,77,29.36,29.36,0,0,1,98.82,47.66m0-12.41A41.74,41.74,0,1,0,140.55,77,41.78,41.78,0,0,0,98.82,35.25Z"/><rect x="75.6" y="35.25" width="23.22" height="7.07"/><rect x="202.78" y="360.42" width="28.88" height="10.23"/></svg>