<?xml version="1.0" encoding="utf-8"?>
<!-- Generator: Adobe Illustrator 22.1.0, SVG Export Plug-In . SVG Version: 6.00 Build 0)  -->
<svg version="1.1" id="Calque_1" xmlns="http://www.w3.org/2000/svg" xmlns:xlink="http://www.w3.org/1999/xlink" x="0px" y="0px"
	 viewBox="0 0 280 89.8" style="enable-background:new 0 0 280 89.8;" xml:space="preserve">
<style type="text/css">
	.st0{fill:#007DED;}
	.st1{fill:#FFF5FB;}
	.st2{opacity:0.3;fill:#D1D1D1;}
	.st3{fill:#ECEDEE;}
	.st4{fill:#FFFFFF;}
	.st5{fill:#F15A24;}
	.st6{opacity:0.1;}
	.st7{fill:#F7931E;}
	.st8{filter:url(#Adobe_OpacityMaskFilter);}
	.st9{mask:url(#SVGID_1_);}
	.st10{opacity:0.7;}
	.st11{filter:url(#Adobe_OpacityMaskFilter_1_);}
	.st12{mask:url(#SVGID_2_);}
	.st13{fill:none;}
	.st14{fill:#E3A078;}
	.st15{opacity:0.5;fill:#E3A078;}
	.st16{fill:#903B0D;}
	.st17{opacity:0.5;fill:#E54595;}
	.st18{opacity:0.5;}
	.st19{fill:#F2C0DC;}
	.st20{fill:none;stroke:#FFFFFF;stroke-width:24.6413;stroke-linecap:round;stroke-miterlimit:10;}
	.st21{opacity:0.25;}
	.st22{opacity:0.3;clip-path:url(#SVGID_4_);fill:#7B7B7B;}
	.st23{opacity:0.3;fill:#7B7B7B;}
	.st24{fill:#FFE9F6;}
	.st25{clip-path:url(#SVGID_6_);fill:#903B0D;}
	.st26{opacity:0.5;clip-path:url(#SVGID_6_);fill:#903B0D;}
	.st27{fill:#C1A3A3;}
	.st28{opacity:0.2;fill:#251826;}
	.st29{fill:#2C3E50;}
	.st30{opacity:0.3;clip-path:url(#SVGID_8_);fill:#7B7B7B;}
	.st31{clip-path:url(#SVGID_10_);fill:#903B0D;}
	.st32{opacity:0.5;clip-path:url(#SVGID_10_);fill:#903B0D;}
	.st33{opacity:0.3;}
	.st34{fill:url(#SVGID_11_);}
	.st35{fill:url(#SVGID_12_);}
	.st36{fill:url(#SVGID_13_);}
	.st37{fill:none;stroke:#FFFFFF;stroke-width:24.625;stroke-linecap:round;stroke-miterlimit:10;}
	.st38{opacity:0.5;fill:#903B0D;}
</style>
<g>
	<g class="st33">
		<g>
			<g>
				<path d="M229.2,16.1c-2.6,0-4.8,2.1-4.8,4.8v7.9c0,2.6,2.1,4.8,4.8,4.8h21.4v15.4c0,10.7-8.3,19.4-18.5,19.4
					c-10.2,0-18.5-8.7-18.5-19.4c0-2.6-2.1-4.8-4.8-4.8h-7.9c-2.6,0-4.8,2.1-4.8,4.8c0,20.4,16.1,37.1,35.9,37.1S268,69.3,268,48.9
					V16.1H229.2z"/>
			</g>
			<g>
				<circle cx="204.9" cy="24.8" r="8.7"/>
			</g>
		</g>
		<g>
			<path d="M12,80.8V55.1c0-0.7,0.6-1.3,1.3-1.3h6c0.7,0,1.3,0.6,1.3,1.3v25.7c0,0.7-0.6,1.3-1.3,1.3h-6C12.6,82.1,12,81.6,12,80.8z
				"/>
			<path d="M25.2,80.8V55.1c0-0.7,0.6-1.3,1.3-1.3h15.9c5.9,0,8.4,3.9,8.4,7.2c0,3.5-2.1,5.9-4.8,6.5c3.1,0.5,5.4,3.3,5.4,6.9
				c0,3.9-2.7,7.7-8.4,7.7H26.5C25.7,82.1,25.2,81.6,25.2,80.8z M42,62.6c0-1-0.8-1.6-1.7-1.6h-6.6v3.3h6.6
				C41.2,64.3,42,63.6,42,62.6z M42.6,73.2c0-1-0.8-1.8-2-1.8h-6.9V75h6.9C41.8,75,42.6,74.3,42.6,73.2z"/>
			<path d="M60.4,80.8V61.3h-6.3c-0.7,0-1.3-0.6-1.3-1.3v-4.9c0-0.7,0.6-1.3,1.3-1.3h21.1c0.7,0,1.3,0.6,1.3,1.3V60
				c0,0.7-0.6,1.3-1.3,1.3h-6.3v19.5c0,0.7-0.6,1.3-1.3,1.3h-6C61,82.1,60.4,81.6,60.4,80.8z"/>
			<path d="M95.6,81.2l-0.7-2.4H84.7l-0.7,2.4c-0.2,0.5-0.7,0.9-1.2,0.9h-6.9c-0.9,0-1.5-0.9-1.2-1.7l9.5-25.7
				c0.2-0.5,0.7-0.8,1.2-0.8h9c0.5,0,1,0.3,1.2,0.8l9.5,25.7c0.3,0.8-0.3,1.7-1.2,1.7h-6.9C96.3,82.1,95.8,81.8,95.6,81.2z
				 M89.8,62.2L87,71.4h5.6L89.8,62.2z"/>
			<path d="M110.6,80.8V61.3h-6.3c-0.7,0-1.3-0.6-1.3-1.3v-4.9c0-0.7,0.6-1.3,1.3-1.3h21.1c0.7,0,1.3,0.6,1.3,1.3V60
				c0,0.7-0.6,1.3-1.3,1.3h-6.3v19.5c0,0.7-0.6,1.3-1.3,1.3h-6C111.2,82.1,110.6,81.6,110.6,80.8z"/>
			<path d="M129.8,80.8V55.1c0-0.7,0.6-1.3,1.3-1.3H150c0.7,0,1.3,0.6,1.3,1.3V60c0,0.7-0.6,1.3-1.3,1.3h-11.6v2.8h11.3
				c0.7,0,1.3,0.6,1.3,1.3v4.9c0,0.7-0.6,1.3-1.3,1.3h-11.3v3.1H150c0.7,0,1.3,0.6,1.3,1.3v4.9c0,0.7-0.6,1.3-1.3,1.3h-18.9
				C130.4,82.1,129.8,81.6,129.8,80.8z"/>
			<path d="M173.7,81.6l-10-13.8v13c0,0.7-0.6,1.3-1.3,1.3h-6c-0.7,0-1.3-0.6-1.3-1.3V55.1c0-0.7,0.6-1.3,1.3-1.3h6.9
				c0.4,0,0.8,0.2,1,0.5l9.5,12.9V55.1c0-0.7,0.6-1.3,1.3-1.3h6c0.7,0,1.3,0.6,1.3,1.3v25.7c0,0.7-0.6,1.3-1.3,1.3h-6.3
				C174.4,82.1,174,81.9,173.7,81.6z"/>
		</g>
		<g>
			<path d="M12.3,46.7l2.9-5.5c0.3-0.6,1.1-0.9,1.7-0.5c0.9,0.5,2,0.8,3.2,0.8c2.2,0,3.7-1.4,3.7-3.7v-20c0-0.7,0.6-1.3,1.3-1.3h7.5
				c0.7,0,1.3,0.6,1.3,1.3v20.1c0,8.5-5.1,12.5-12.9,12.5c-2.8,0-5.8-0.5-8.3-2C12.2,48,12,47.3,12.3,46.7z"/>
			<path d="M37.5,33.2C37.5,23,45.4,16,55.7,16c10.3,0,18.2,7,18.2,17.2c0,10.2-7.9,17.2-18.2,17.2C45.4,50.4,37.5,43.4,37.5,33.2z
				 M63.7,33.2c0-4.6-3.1-8.3-8-8.3c-4.8,0-8,3.7-8,8.3c0,4.6,3.1,8.3,8,8.3C60.6,41.5,63.7,37.8,63.7,33.2z"/>
			<path d="M99.5,48.5V37.1H87.6v11.4c0,0.7-0.6,1.3-1.3,1.3h-7.5c-0.7,0-1.3-0.6-1.3-1.3V17.8c0-0.7,0.6-1.3,1.3-1.3h7.5
				c0.7,0,1.3,0.6,1.3,1.3v10.5h11.9V17.8c0-0.7,0.6-1.3,1.3-1.3h7.5c0.7,0,1.3,0.6,1.3,1.3v30.7c0,0.7-0.6,1.3-1.3,1.3h-7.5
				C100.1,49.8,99.5,49.2,99.5,48.5z"/>
			<path d="M136.9,48.9l-0.9-3h-12l-0.9,3c-0.2,0.5-0.7,0.9-1.2,0.9h-8.6c-0.9,0-1.5-0.9-1.2-1.7l11.3-30.7c0.2-0.5,0.7-0.8,1.2-0.8
				h10.9c0.5,0,1,0.3,1.2,0.8L148,48.1c0.3,0.8-0.3,1.7-1.2,1.7h-8.6C137.6,49.8,137.1,49.4,136.9,48.9z M130,26.4l-3.3,10.7h6.6
				L130,26.4z"/>
			<path d="M172.4,49.3l-11.9-16.3v15.6c0,0.7-0.6,1.3-1.3,1.3h-7.5c-0.7,0-1.3-0.6-1.3-1.3V17.8c0-0.7,0.6-1.3,1.3-1.3h8.4
				c0.4,0,0.8,0.2,1,0.5l11.2,15.2V17.8c0-0.7,0.6-1.3,1.3-1.3h7.5c0.7,0,1.3,0.6,1.3,1.3v30.7c0,0.7-0.6,1.3-1.3,1.3h-7.7
				C173,49.8,172.6,49.6,172.4,49.3z"/>
		</g>
	</g>
	<g>
		<g>
			<g>
				<path class="st4" d="M229.2,10.6c-2.6,0-4.8,2.1-4.8,4.8v7.9c0,2.6,2.1,4.8,4.8,4.8h21.4v15.4c0,10.7-8.3,19.4-18.5,19.4
					c-10.2,0-18.5-8.7-18.5-19.4c0-2.6-2.1-4.8-4.8-4.8h-7.9c-2.6,0-4.8,2.1-4.8,4.8c0,20.4,16.1,37.1,35.9,37.1S268,63.9,268,43.4
					V10.6H229.2z"/>
			</g>
			<g>
				<circle class="st4" cx="204.9" cy="19.3" r="8.7"/>
			</g>
		</g>
		<g>
			<g>
				<path class="st4" d="M12,75.4V49.7c0-0.7,0.6-1.3,1.3-1.3h6c0.7,0,1.3,0.6,1.3,1.3v25.7c0,0.7-0.6,1.3-1.3,1.3h-6
					C12.6,76.7,12,76.1,12,75.4z"/>
			</g>
			<g>
				<path class="st4" d="M25.2,75.4V49.7c0-0.7,0.6-1.3,1.3-1.3h15.9c5.9,0,8.4,3.9,8.4,7.2c0,3.5-2.1,5.9-4.8,6.5
					c3.1,0.5,5.4,3.3,5.4,6.9c0,3.9-2.7,7.7-8.4,7.7H26.5C25.7,76.7,25.2,76.1,25.2,75.4z M42,57.1c0-1-0.8-1.6-1.7-1.6h-6.6v3.3
					h6.6C41.2,58.8,42,58.1,42,57.1z M42.6,67.8c0-1-0.8-1.8-2-1.8h-6.9v3.6h6.9C41.8,69.6,42.6,68.8,42.6,67.8z"/>
			</g>
			<g>
				<path class="st4" d="M60.4,75.4V55.8h-6.3c-0.7,0-1.3-0.6-1.3-1.3v-4.9c0-0.7,0.6-1.3,1.3-1.3h21.1c0.7,0,1.3,0.6,1.3,1.3v4.9
					c0,0.7-0.6,1.3-1.3,1.3h-6.3v19.5c0,0.7-0.6,1.3-1.3,1.3h-6C61,76.7,60.4,76.1,60.4,75.4z"/>
			</g>
			<g>
				<path class="st4" d="M95.6,75.8l-0.7-2.4H84.7l-0.7,2.4c-0.2,0.5-0.7,0.9-1.2,0.9h-6.9c-0.9,0-1.5-0.9-1.2-1.7l9.5-25.7
					c0.2-0.5,0.7-0.8,1.2-0.8h9c0.5,0,1,0.3,1.2,0.8l9.5,25.7c0.3,0.8-0.3,1.7-1.2,1.7h-6.9C96.3,76.7,95.8,76.3,95.6,75.8z
					 M89.8,56.8L87,65.9h5.6L89.8,56.8z"/>
			</g>
			<g>
				<path class="st4" d="M110.6,75.4V55.8h-6.3c-0.7,0-1.3-0.6-1.3-1.3v-4.9c0-0.7,0.6-1.3,1.3-1.3h21.1c0.7,0,1.3,0.6,1.3,1.3v4.9
					c0,0.7-0.6,1.3-1.3,1.3h-6.3v19.5c0,0.7-0.6,1.3-1.3,1.3h-6C111.2,76.7,110.6,76.1,110.6,75.4z"/>
			</g>
			<g>
				<path class="st4" d="M129.8,75.4V49.7c0-0.7,0.6-1.3,1.3-1.3H150c0.7,0,1.3,0.6,1.3,1.3v4.9c0,0.7-0.6,1.3-1.3,1.3h-11.6v2.8
					h11.3c0.7,0,1.3,0.6,1.3,1.3v4.9c0,0.7-0.6,1.3-1.3,1.3h-11.3v3.1H150c0.7,0,1.3,0.6,1.3,1.3v4.9c0,0.7-0.6,1.3-1.3,1.3h-18.9
					C130.4,76.7,129.8,76.1,129.8,75.4z"/>
			</g>
			<g>
				<path class="st4" d="M173.7,76.1l-10-13.8v13c0,0.7-0.6,1.3-1.3,1.3h-6c-0.7,0-1.3-0.6-1.3-1.3V49.7c0-0.7,0.6-1.3,1.3-1.3h6.9
					c0.4,0,0.8,0.2,1,0.5l9.5,12.9V49.7c0-0.7,0.6-1.3,1.3-1.3h6c0.7,0,1.3,0.6,1.3,1.3v25.7c0,0.7-0.6,1.3-1.3,1.3h-6.3
					C174.4,76.7,174,76.5,173.7,76.1z"/>
			</g>
		</g>
		<g>
			<g>
				<path class="st4" d="M12.3,41.2l2.9-5.5c0.3-0.6,1.1-0.9,1.7-0.5c0.9,0.5,2,0.8,3.2,0.8c2.2,0,3.7-1.4,3.7-3.7v-20
					c0-0.7,0.6-1.3,1.3-1.3h7.5c0.7,0,1.3,0.6,1.3,1.3v20.1c0,8.5-5.1,12.5-12.9,12.5c-2.8,0-5.8-0.5-8.3-2
					C12.2,42.6,12,41.8,12.3,41.2z"/>
			</g>
			<g>
				<path class="st4" d="M37.5,27.7c0-10.2,7.9-17.2,18.2-17.2c10.3,0,18.2,7,18.2,17.2c0,10.2-7.9,17.2-18.2,17.2
					C45.4,44.9,37.5,37.9,37.5,27.7z M63.7,27.7c0-4.6-3.1-8.3-8-8.3c-4.8,0-8,3.7-8,8.3c0,4.6,3.1,8.3,8,8.3
					C60.6,36.1,63.7,32.4,63.7,27.7z"/>
			</g>
			<g>
				<path class="st4" d="M99.5,43V31.6H87.6V43c0,0.7-0.6,1.3-1.3,1.3h-7.5c-0.7,0-1.3-0.6-1.3-1.3V12.4c0-0.7,0.6-1.3,1.3-1.3h7.5
					c0.7,0,1.3,0.6,1.3,1.3v10.5h11.9V12.4c0-0.7,0.6-1.3,1.3-1.3h7.5c0.7,0,1.3,0.6,1.3,1.3V43c0,0.7-0.6,1.3-1.3,1.3h-7.5
					C100.1,44.3,99.5,43.8,99.5,43z"/>
			</g>
			<g>
				<path class="st4" d="M136.9,43.4l-0.9-3h-12l-0.9,3c-0.2,0.5-0.7,0.9-1.2,0.9h-8.6c-0.9,0-1.5-0.9-1.2-1.7l11.3-30.7
					c0.2-0.5,0.7-0.8,1.2-0.8h10.9c0.5,0,1,0.3,1.2,0.8L148,42.6c0.3,0.8-0.3,1.7-1.2,1.7h-8.6C137.6,44.3,137.1,44,136.9,43.4z
					 M130,20.9l-3.3,10.7h6.6L130,20.9z"/>
			</g>
			<g>
				<path class="st4" d="M172.4,43.8l-11.9-16.3V43c0,0.7-0.6,1.3-1.3,1.3h-7.5c-0.7,0-1.3-0.6-1.3-1.3V12.4c0-0.7,0.6-1.3,1.3-1.3
					h8.4c0.4,0,0.8,0.2,1,0.5l11.2,15.2V12.4c0-0.7,0.6-1.3,1.3-1.3h7.5c0.7,0,1.3,0.6,1.3,1.3V43c0,0.7-0.6,1.3-1.3,1.3h-7.7
					C173,44.3,172.6,44.1,172.4,43.8z"/>
			</g>
		</g>
	</g>
	<g class="st33">
		<g>
			<g>
				<path class="st4" d="M232.1,81.3c-20.2,0-36.7-17-36.7-37.9c0-3.1,2.5-5.6,5.5-5.6h7.9c3.1,0,5.5,2.5,5.5,5.5
					c0,10.2,7.9,18.6,17.7,18.6c9.8,0,17.7-8.3,17.7-18.6V28.8h-20.6c-3.1,0-5.5-2.5-5.5-5.5v-7.9c0-3.1,2.5-5.5,5.5-5.5h39.6v33.6
					C268.8,64.3,252.3,81.3,232.1,81.3z"/>
				<path d="M268,10.6v32.8c0,20.4-16.1,37.1-35.9,37.1s-35.9-16.6-35.9-37.1c0-2.6,2.1-4.8,4.8-4.8h7.9c2.6,0,4.8,2.1,4.8,4.8
					c0,10.7,8.3,19.4,18.5,19.4c10.2,0,18.5-8.7,18.5-19.4V28h-21.4c-2.6,0-4.8-2.1-4.8-4.8v-7.9c0-2.6,2.1-4.8,4.8-4.8H268
					 M269.6,9H268h-38.8c-3.5,0-6.3,2.8-6.3,6.3v7.9c0,3.5,2.8,6.3,6.3,6.3H249v13.9c0,9.8-7.6,17.8-16.9,17.8s-16.9-8-16.9-17.8
					c0-3.5-2.8-6.3-6.3-6.3h-7.9c-3.5,0-6.3,2.8-6.3,6.3c0,21.3,16.8,38.6,37.5,38.6s37.5-17.3,37.5-38.6V10.6V9L269.6,9z"/>
			</g>
			<g>
				<path class="st4" d="M204.9,28.8c-5.2,0-9.5-4.3-9.5-9.5s4.3-9.5,9.5-9.5s9.5,4.3,9.5,9.5S210.1,28.8,204.9,28.8z"/>
				<path d="M204.9,10.6c4.8,0,8.7,3.9,8.7,8.7c0,4.8-3.9,8.7-8.7,8.7c-4.8,0-8.7-3.9-8.7-8.7C196.2,14.5,200.1,10.6,204.9,10.6
					 M204.9,9c-5.7,0-10.3,4.6-10.3,10.3s4.6,10.3,10.3,10.3c5.7,0,10.3-4.6,10.3-10.3S210.5,9,204.9,9L204.9,9z"/>
			</g>
		</g>
		<g>
			<g>
				<path class="st4" d="M13.3,77.5c-1.1,0-2.1-0.9-2.1-2.1V49.7c0-1.1,0.9-2.1,2.1-2.1h6c1.1,0,2.1,0.9,2.1,2.1v25.7
					c0,1.1-0.9,2.1-2.1,2.1H13.3z"/>
				<path d="M19.3,48.4c0.7,0,1.3,0.6,1.3,1.3v25.7c0,0.7-0.6,1.3-1.3,1.3h-6c-0.7,0-1.3-0.6-1.3-1.3V49.7c0-0.7,0.6-1.3,1.3-1.3
					H19.3 M19.3,46.8h-6c-1.6,0-2.9,1.3-2.9,2.9v25.7c0,1.6,1.3,2.9,2.9,2.9h6c1.6,0,2.9-1.3,2.9-2.9V49.7
					C22.1,48.1,20.8,46.8,19.3,46.8L19.3,46.8z"/>
			</g>
			<g>
				<path class="st4" d="M26.5,77.5c-1.1,0-2.1-0.9-2.1-2.1V49.7c0-1.1,0.9-2.1,2.1-2.1h15.9c6,0,9.2,4,9.2,8c0,2.8-1.3,5.2-3.4,6.4
					c2.4,1.3,3.9,3.9,3.9,7c0,4.2-2.8,8.5-9.1,8.5H26.5z M40.6,68.8c0.5,0,1.2-0.1,1.2-1c0-0.6-0.5-1-1.2-1h-6.1v2H40.6z M40.3,58
					c0.4,0,0.9-0.3,0.9-0.9c0-0.5-0.5-0.8-0.9-0.8h-5.8V58H40.3z"/>
				<path d="M42.3,48.4c5.9,0,8.4,3.9,8.4,7.2c0,3.5-2.1,5.9-4.8,6.5c3.1,0.5,5.4,3.3,5.4,6.9c0,3.9-2.7,7.7-8.4,7.7H26.5
					c-0.7,0-1.3-0.6-1.3-1.3V49.7c0-0.7,0.6-1.3,1.3-1.3H42.3 M33.7,58.8h6.6c0.9,0,1.7-0.7,1.7-1.7c0-1-0.8-1.6-1.7-1.6h-6.6V58.8
					 M33.7,69.6h6.9c1.2,0,2-0.7,2-1.8c0-1-0.8-1.8-2-1.8h-6.9V69.6 M42.3,46.8H26.5c-1.6,0-2.9,1.3-2.9,2.9v25.7
					c0,1.6,1.3,2.9,2.9,2.9h16.5c6.8,0,9.9-4.8,9.9-9.2c0-2.9-1.3-5.5-3.3-7c1.7-1.5,2.8-3.7,2.8-6.4C52.3,51.2,48.9,46.8,42.3,46.8
					L42.3,46.8z M35.3,57.1h5.1c0.1,0,0.1,0,0.1,0c0,0,0,0.1-0.1,0.1h-5.1V57.1L35.3,57.1z M35.3,67.5h5.3c0.4,0,0.4,0.2,0.4,0.3
					c0,0.1,0,0.2-0.4,0.2h-5.3V67.5L35.3,67.5z"/>
			</g>
			<g>
				<path class="st4" d="M61.7,77.5c-1.1,0-2.1-0.9-2.1-2.1V56.6h-5.5c-1.1,0-2.1-0.9-2.1-2.1v-4.9c0-1.1,0.9-2.1,2.1-2.1h21.1
					c1.1,0,2.1,0.9,2.1,2.1v4.9c0,1.1-0.9,2.1-2.1,2.1h-5.5v18.8c0,1.1-0.9,2.1-2.1,2.1H61.7z"/>
				<path d="M75.2,48.4c0.7,0,1.3,0.6,1.3,1.3v4.9c0,0.7-0.6,1.3-1.3,1.3h-6.3v19.5c0,0.7-0.6,1.3-1.3,1.3h-6
					c-0.7,0-1.3-0.6-1.3-1.3V55.8h-6.3c-0.7,0-1.3-0.6-1.3-1.3v-4.9c0-0.7,0.6-1.3,1.3-1.3H75.2 M75.2,46.8H54.1
					c-1.6,0-2.9,1.3-2.9,2.9v4.9c0,1.6,1.3,2.9,2.9,2.9h4.7v18c0,1.6,1.3,2.9,2.9,2.9h6c1.6,0,2.9-1.3,2.9-2.9v-18h4.7
					c1.6,0,2.9-1.3,2.9-2.9v-4.9C78.1,48.1,76.8,46.8,75.2,46.8L75.2,46.8z"/>
			</g>
			<g>
				<path class="st4" d="M96.8,77.5c-0.9,0-1.7-0.6-2-1.5l-0.6-1.8h-9L84.7,76c-0.3,0.9-1.1,1.5-2,1.5h-6.9c-0.7,0-1.3-0.3-1.7-0.9
					c-0.4-0.6-0.5-1.3-0.2-1.9L83.3,49c0.3-0.8,1.1-1.4,2-1.4h9c0.9,0,1.7,0.5,2,1.4l9.5,25.7c0.2,0.6,0.1,1.4-0.2,1.9
					c-0.4,0.6-1,0.9-1.7,0.9H96.8z M91.5,65.1l-1.7-5.7L88,65.1H91.5z"/>
				<path d="M94.3,48.4c0.5,0,1,0.3,1.2,0.8l9.5,25.7c0.3,0.8-0.3,1.7-1.2,1.7h-6.9c-0.6,0-1.1-0.4-1.2-0.9l-0.7-2.4H84.7l-0.7,2.4
					c-0.2,0.5-0.7,0.9-1.2,0.9h-6.9c-0.9,0-1.5-0.9-1.2-1.7l9.5-25.7c0.2-0.5,0.7-0.8,1.2-0.8H94.3 M87,65.9h5.6l-2.8-9.1L87,65.9
					 M94.3,46.8h-9c-1.2,0-2.3,0.8-2.7,1.9l-9.5,25.7c-0.3,0.9-0.2,1.9,0.3,2.6s1.4,1.2,2.3,1.2h6.9c1.3,0,2.4-0.8,2.7-2l0.4-1.3
					h7.9l0.4,1.3c0.4,1.2,1.5,2,2.7,2h6.9c0.9,0,1.8-0.5,2.3-1.2c0.5-0.8,0.7-1.7,0.3-2.6l-9.5-25.7C96.5,47.6,95.4,46.8,94.3,46.8
					L94.3,46.8z M89.1,64.3l0.7-2.2l0.7,2.2H89.1L89.1,64.3z"/>
			</g>
			<g>
				<path class="st4" d="M111.9,77.5c-1.1,0-2.1-0.9-2.1-2.1V56.6h-5.5c-1.1,0-2.1-0.9-2.1-2.1v-4.9c0-1.1,0.9-2.1,2.1-2.1h21.1
					c1.1,0,2.1,0.9,2.1,2.1v4.9c0,1.1-0.9,2.1-2.1,2.1H120v18.8c0,1.1-0.9,2.1-2.1,2.1H111.9z"/>
				<path d="M125.5,48.4c0.7,0,1.3,0.6,1.3,1.3v4.9c0,0.7-0.6,1.3-1.3,1.3h-6.3v19.5c0,0.7-0.6,1.3-1.3,1.3h-6
					c-0.7,0-1.3-0.6-1.3-1.3V55.8h-6.3c-0.7,0-1.3-0.6-1.3-1.3v-4.9c0-0.7,0.6-1.3,1.3-1.3H125.5 M125.5,46.8h-21.1
					c-1.6,0-2.9,1.3-2.9,2.9v4.9c0,1.6,1.3,2.9,2.9,2.9h4.7v18c0,1.6,1.3,2.9,2.9,2.9h6c1.6,0,2.9-1.3,2.9-2.9v-18h4.7
					c1.6,0,2.9-1.3,2.9-2.9v-4.9C128.3,48.1,127,46.8,125.5,46.8L125.5,46.8z"/>
			</g>
			<g>
				<path class="st4" d="M131.1,77.5c-1.1,0-2.1-0.9-2.1-2.1V49.7c0-1.1,0.9-2.1,2.1-2.1H150c1.1,0,2.1,0.9,2.1,2.1v4.9
					c0,1.1-0.9,2.1-2.1,2.1h-10.8v1.2h10.5c1.1,0,2.1,0.9,2.1,2.1v4.9c0,1.1-0.9,2.1-2.1,2.1h-10.5v1.5H150c1.1,0,2.1,0.9,2.1,2.1
					v4.9c0,1.1-0.9,2.1-2.1,2.1H131.1z"/>
				<path d="M150,48.4c0.7,0,1.3,0.6,1.3,1.3v4.9c0,0.7-0.6,1.3-1.3,1.3h-11.6v2.8h11.3c0.7,0,1.3,0.6,1.3,1.3v4.9
					c0,0.7-0.6,1.3-1.3,1.3h-11.3v3.1H150c0.7,0,1.3,0.6,1.3,1.3v4.9c0,0.7-0.6,1.3-1.3,1.3h-18.9c-0.7,0-1.3-0.6-1.3-1.3V49.7
					c0-0.7,0.6-1.3,1.3-1.3H150 M150,46.8h-18.9c-1.6,0-2.9,1.3-2.9,2.9v25.7c0,1.6,1.3,2.9,2.9,2.9H150c1.6,0,2.9-1.3,2.9-2.9v-4.9
					c0-1.6-1.2-2.8-2.8-2.9c1.4-0.2,2.5-1.4,2.5-2.8v-4.9c0-1.2-0.7-2.2-1.8-2.6c1.2-0.3,2.1-1.4,2.1-2.8v-4.9
					C152.9,48.1,151.6,46.8,150,46.8L150,46.8z"/>
			</g>
			<g>
				<path class="st4" d="M174.8,77.5c-0.7,0-1.3-0.3-1.7-0.9l-8.6-11.9v10.6c0,1.1-0.9,2.1-2.1,2.1h-6c-1.1,0-2.1-0.9-2.1-2.1V49.7
					c0-1.1,0.9-2.1,2.1-2.1h6.9c0.7,0,1.3,0.3,1.7,0.8l8,11v-9.7c0-1.1,0.9-2.1,2.1-2.1h6c1.1,0,2.1,0.9,2.1,2.1v25.7
					c0,1.1-0.9,2.1-2.1,2.1H174.8z"/>
				<path d="M181.1,48.4c0.7,0,1.3,0.6,1.3,1.3v25.7c0,0.7-0.6,1.3-1.3,1.3h-6.3c-0.4,0-0.8-0.2-1.1-0.5l-10-13.8v13
					c0,0.7-0.6,1.3-1.3,1.3h-6c-0.7,0-1.3-0.6-1.3-1.3V49.7c0-0.7,0.6-1.3,1.3-1.3h6.9c0.4,0,0.8,0.2,1,0.5l9.5,12.9V49.7
					c0-0.7,0.6-1.3,1.3-1.3H181.1 M181.1,46.8h-6c-1.6,0-2.9,1.3-2.9,2.9V57l-6.6-9c-0.5-0.7-1.4-1.2-2.3-1.2h-6.9
					c-1.6,0-2.9,1.3-2.9,2.9v25.7c0,1.6,1.3,2.9,2.9,2.9h6c1.6,0,2.9-1.3,2.9-2.9v-8.2l7.2,9.9c0.5,0.7,1.4,1.2,2.3,1.2h6.3
					c1.6,0,2.9-1.3,2.9-2.9V49.7C183.9,48.1,182.6,46.8,181.1,46.8L181.1,46.8z"/>
			</g>
		</g>
		<g>
			<g>
				<path class="st4" d="M21,45.7c-3.4,0-6.4-0.7-8.7-2.1c-0.9-0.6-1.3-1.8-0.8-2.8l2.9-5.5c0.4-0.7,1.1-1.1,1.8-1.1
					c0.3,0,0.7,0.1,1,0.2c1,0.5,1.9,0.8,2.8,0.8c1.8,0,2.9-1.1,2.9-3v-20c0-1.1,0.9-2.1,2.1-2.1h7.5c1.1,0,2.1,0.9,2.1,2.1v20.1
					C34.7,40.9,29.7,45.7,21,45.7z"/>
				<path d="M32.6,11.1c0.7,0,1.3,0.6,1.3,1.3v20.1c0,8.5-5.1,12.5-12.9,12.5c-2.8,0-5.8-0.5-8.3-2c-0.6-0.4-0.8-1.1-0.5-1.7
					l2.9-5.5c0.2-0.4,0.7-0.7,1.1-0.7c0.2,0,0.4,0,0.6,0.1c0.9,0.5,2,0.8,3.2,0.8c2.2,0,3.7-1.4,3.7-3.7v-20c0-0.7,0.6-1.3,1.3-1.3
					H32.6 M32.6,9.5h-7.5c-1.6,0-2.9,1.3-2.9,2.9v20c0,1.4-0.7,2.2-2.1,2.2c-0.8,0-1.6-0.2-2.5-0.7c-0.4-0.2-0.9-0.3-1.3-0.3
					c-1.1,0-2,0.6-2.5,1.5l-2.9,5.5c-0.7,1.3-0.3,3,1,3.8c2.4,1.5,5.6,2.2,9.1,2.2c9.2,0,14.4-5.1,14.4-14V12.4
					C35.5,10.8,34.2,9.5,32.6,9.5L32.6,9.5z"/>
			</g>
			<g>
				<path class="st4" d="M55.7,45.7c-11,0-19-7.6-19-18s8-18,19-18s19,7.6,19,18S66.7,45.7,55.7,45.7z M55.7,20.2
					c-4.2,0-7.2,3.1-7.2,7.6s3,7.6,7.2,7.6s7.2-3.1,7.2-7.6S60,20.2,55.7,20.2z"/>
				<path d="M55.7,10.5c10.3,0,18.2,7,18.2,17.2c0,10.2-7.9,17.2-18.2,17.2s-18.2-7-18.2-17.2C37.5,17.5,45.4,10.5,55.7,10.5
					 M55.7,36.1c4.8,0,8-3.7,8-8.3c0-4.6-3.1-8.3-8-8.3c-4.8,0-8,3.7-8,8.3C47.7,32.4,50.9,36.1,55.7,36.1 M55.7,8.9
					C44.3,8.9,36,16.8,36,27.7s8.3,18.8,19.8,18.8s19.8-7.9,19.8-18.8S67.2,8.9,55.7,8.9L55.7,8.9z M55.7,34.5
					c-3.8,0-6.4-2.8-6.4-6.8s2.6-6.8,6.4-6.8s6.4,2.8,6.4,6.8S59.5,34.5,55.7,34.5L55.7,34.5z"/>
			</g>
			<g>
				<path class="st4" d="M100.8,45.1c-1.1,0-2.1-0.9-2.1-2.1V32.4H88.4V43c0,1.1-0.9,2.1-2.1,2.1h-7.5c-1.1,0-2.1-0.9-2.1-2.1V12.4
					c0-1.1,0.9-2.1,2.1-2.1h7.5c1.1,0,2.1,0.9,2.1,2.1V22h10.4v-9.7c0-1.1,0.9-2.1,2.1-2.1h7.5c1.1,0,2.1,0.9,2.1,2.1V43
					c0,1.1-0.9,2.1-2.1,2.1H100.8z"/>
				<path d="M108.3,11.1c0.7,0,1.3,0.6,1.3,1.3V43c0,0.7-0.6,1.3-1.3,1.3h-7.5c-0.7,0-1.3-0.6-1.3-1.3V31.6H87.6V43
					c0,0.7-0.6,1.3-1.3,1.3h-7.5c-0.7,0-1.3-0.6-1.3-1.3V12.4c0-0.7,0.6-1.3,1.3-1.3h7.5c0.7,0,1.3,0.6,1.3,1.3v10.5h11.9V12.4
					c0-0.7,0.6-1.3,1.3-1.3H108.3 M108.3,9.5h-7.5c-1.6,0-2.9,1.3-2.9,2.9v8.9h-8.8v-8.9c0-1.6-1.3-2.9-2.9-2.9h-7.5
					c-1.6,0-2.9,1.3-2.9,2.9V43c0,1.6,1.3,2.9,2.9,2.9h7.5c1.6,0,2.9-1.3,2.9-2.9v-9.9H98V43c0,1.6,1.3,2.9,2.9,2.9h7.5
					c1.6,0,2.9-1.3,2.9-2.9V12.4C111.2,10.8,109.9,9.5,108.3,9.5L108.3,9.5z"/>
			</g>
			<g>
				<path class="st4" d="M138.2,45.1c-0.9,0-1.7-0.6-2-1.5l-0.7-2.4h-10.8l-0.7,2.4c-0.3,0.9-1.1,1.5-2,1.5h-8.6
					c-0.7,0-1.3-0.3-1.7-0.9c-0.4-0.6-0.5-1.3-0.2-1.9l11.3-30.7c0.3-0.8,1.1-1.4,2-1.4h10.9c0.9,0,1.7,0.5,2,1.4l11.3,30.7
					c0.2,0.6,0.1,1.4-0.2,1.9s-1,0.9-1.7,0.9H138.2z M132.3,30.9l-2.2-7.3l-2.2,7.3H132.3z"/>
				<path d="M135.5,11.1c0.5,0,1,0.3,1.2,0.8L148,42.6c0.3,0.8-0.3,1.7-1.2,1.7h-8.6c-0.6,0-1.1-0.4-1.2-0.9l-0.9-3h-12l-0.9,3
					c-0.2,0.5-0.7,0.9-1.2,0.9h-8.6c-0.9,0-1.5-0.9-1.2-1.7l11.3-30.7c0.2-0.5,0.7-0.8,1.2-0.8H135.5 M126.7,31.7h6.6L130,20.9
					L126.7,31.7 M135.5,9.5h-10.9c-1.2,0-2.3,0.8-2.7,1.9L110.6,42c-0.3,0.9-0.2,1.9,0.3,2.6c0.5,0.8,1.4,1.2,2.3,1.2h8.6
					c1.3,0,2.4-0.8,2.7-2l0.6-1.9h9.7l0.6,1.9c0.4,1.2,1.5,2,2.7,2h8.6c0.9,0,1.8-0.5,2.3-1.2c0.5-0.8,0.7-1.7,0.3-2.6l-11.3-30.7
					C137.7,10.2,136.6,9.5,135.5,9.5L135.5,9.5z M128.8,30.1l1.2-3.8l1.2,3.8H128.8L128.8,30.1z"/>
			</g>
			<g>
				<path class="st4" d="M173.4,45.1c-0.7,0-1.3-0.3-1.7-0.9l-10.5-14.4V43c0,1.1-0.9,2.1-2.1,2.1h-7.5c-1.1,0-2.1-0.9-2.1-2.1V12.4
					c0-1.1,0.9-2.1,2.1-2.1h8.4c0.7,0,1.3,0.3,1.7,0.8l9.8,13.3V12.4c0-1.1,0.9-2.1,2.1-2.1h7.5c1.1,0,2.1,0.9,2.1,2.1V43
					c0,1.1-0.9,2.1-2.1,2.1H173.4z"/>
				<path d="M181.2,11.1c0.7,0,1.3,0.6,1.3,1.3V43c0,0.7-0.6,1.3-1.3,1.3h-7.7c-0.4,0-0.8-0.2-1.1-0.5l-11.9-16.3V43
					c0,0.7-0.6,1.3-1.3,1.3h-7.5c-0.7,0-1.3-0.6-1.3-1.3V12.4c0-0.7,0.6-1.3,1.3-1.3h8.4c0.4,0,0.8,0.2,1,0.5l11.2,15.2V12.4
					c0-0.7,0.6-1.3,1.3-1.3H181.2 M181.2,9.5h-7.5c-1.6,0-2.9,1.3-2.9,2.9v9.7l-8.4-11.4c-0.5-0.7-1.4-1.2-2.3-1.2h-8.4
					c-1.6,0-2.9,1.3-2.9,2.9V43c0,1.6,1.3,2.9,2.9,2.9h7.5c1.6,0,2.9-1.3,2.9-2.9V32.3l9.1,12.5c0.5,0.7,1.4,1.2,2.3,1.2h7.7
					c1.6,0,2.9-1.3,2.9-2.9V12.4C184,10.8,182.7,9.5,181.2,9.5L181.2,9.5z"/>
			</g>
		</g>
	</g>
</g>
</svg>
