<svg xmlns="http://www.w3.org/2000/svg" viewBox="0 0 453 428"><defs><style>.cls-1{isolation:isolate;}.cls-2,.cls-3{fill:#e3a078;}.cls-12,.cls-3,.cls-5,.cls-6{opacity:0.5;}.cls-10,.cls-12,.cls-3,.cls-5{mix-blend-mode:multiply;}.cls-12,.cls-4{fill:#903b0d;}.cls-5{fill:#e54595;}.cls-7{fill:#f2c0dc;}.cls-8{opacity:0.25;}.cls-9{fill:#fff;}.cls-10{fill:#7b7b7b;opacity:0.3;}.cls-11{fill:#fff5fb;}</style></defs><title>logo-illustration2-04</title><g class="cls-1"><g id="Calque_1" data-name="Calque 1"><path class="cls-2" d="M207.37,39.24a25,25,0,0,0-24.93,24.92v41.09a25,25,0,0,0,24.93,24.92H319.14v80.66c0,55.8-43.35,101.19-96.64,101.19s-96.64-45.39-96.64-101.21a25,25,0,0,0-24.92-24.92H59.52a25,25,0,0,0-24.93,24.94c0,106.87,84.22,193.81,187.74,193.81S410.08,317.7,410.08,210.83V39.24Z"/><circle class="cls-2" cx="80.06" cy="84.7" r="45.47"/><path class="cls-2" d="M207.37,39.24a25,25,0,0,0-24.93,24.92v41.09a25,25,0,0,0,24.93,24.92H319.14v80.66c0,55.8-43.35,101.19-96.64,101.19s-96.64-45.39-96.64-101.21a25,25,0,0,0-24.92-24.92H59.52a25,25,0,0,0-24.93,24.94c0,106.87,84.22,193.81,187.74,193.81S410.08,317.7,410.08,210.83V39.24Z"/><circle class="cls-2" cx="80.06" cy="84.7" r="45.47"/><path class="cls-3" d="M381.11,135.25v75.58c0,90.89-71.23,164.83-158.78,164.83C136.88,375.66,67,305.2,63.7,217.29l-23.62-22a24.81,24.81,0,0,0-5.49,15.59c0,106.87,84.23,193.81,187.74,193.81S410.08,317.7,410.08,210.83V128.36Z"/><path class="cls-4" d="M135.52,210.81a34.62,34.62,0,0,0-34.58-34.58H59.52a34.63,34.63,0,0,0-34.58,34.6c0,1.42,0,2.83,0,4.24,0,.51,0,1,0,1.55A26.56,26.56,0,0,0,65.8,239a35.33,35.33,0,0,0,69.9-7.25V216.62C135.58,214.7,135.52,212.76,135.52,210.81ZM410.19,29.58H207.36a34.58,34.58,0,0,0-34.57,34.58v41.09c0,.37,0,.74,0,1.11s0,.74.05,1.1,0,.49,0,.73l.06.59c.05.58.13,1.15.22,1.72,0,.23.07.45.11.68s0,.2,0,.3l.12.62c.12.6.26,1.19.41,1.77,0,.13.07.27.1.39l0,.11c.19.69.39,1.36.63,2,.06.2.14.41.21.6.15.4.3.8.46,1.2l.24.59c.17.38.34.76.52,1.14l.27.57a34.6,34.6,0,0,0,1.84,3.26c.09.14.17.28.27.42q.74,1.13,1.56,2.19l.33.42c.13.16.26.33.4.49s.32.39.49.58c.39.46.8.91,1.23,1.34l.47.48a31.33,31.33,0,0,0,2.49,2.26l.57.47,1.08.82.51.35c.33.24.68.47,1,.7a5.84,5.84,0,0,0,.53.33l.53.33.86.5a33,33,0,0,0,4.79,2.21l.52.19c.71.26,1.42.49,2.15.69l.74.2.86.21.82.18c.56.11,1.12.21,1.7.3.28.05.57.09.86.12l.91.11.77.07.72,0,.48,0c.5,0,1,0,1.51,0H309.49v71c0,1.31,0,2.6-.1,3.9-.05.62-.08,1.25-.08,1.89a21.9,21.9,0,0,0,31.34,19.76A28.49,28.49,0,0,0,391,249.21a28.17,28.17,0,0,0,5.9-13.5c.42,0,.85.06,1.28.07h.48a20.88,20.88,0,0,0,21.09-20.67c0-.36,0-.71,0-1.07,0-1.07,0-2.14,0-3.22V39.12A9.54,9.54,0,0,0,410.19,29.58Z"/><path class="cls-3" d="M408.83,233.23q-.37,3.38-.87,6.71a26.5,26.5,0,0,1-6.44,1.49,34.3,34.3,0,0,1-64.82,2.34,27.88,27.88,0,0,1-5.5.54,27.54,27.54,0,0,1-15.93-5.05q.84-3,1.52-6.16a21.89,21.89,0,0,0,23.86,3.28,28.5,28.5,0,0,0,56.24-.67c.57,0,1.16.08,1.75.08A21.39,21.39,0,0,0,408.83,233.23Z"/><path class="cls-3" d="M135,253.85a41.11,41.11,0,0,1-72.8-6.71,32.29,32.29,0,0,1-24.57-1.27q-.64-3.63-1.16-7.31A26.54,26.54,0,0,0,65.8,239a35.33,35.33,0,0,0,66.45,8Q133.52,250.5,135,253.85Z"/><path class="cls-5" d="M391.17,249c-.06.07-.12.15-.19.22a.65.65,0,0,0,0-.14Z"/><g class="cls-6"><path class="cls-7" d="M390.55,70.25h-.06c-40.62-.17-76.87-.17-117.51,0h-.06a12.32,12.32,0,0,1-.05-24.63c40.72-.16,77-.16,117.73,0a12.32,12.32,0,0,1-.05,24.63Z"/></g><g class="cls-6"><path class="cls-7" d="M204.78,70.25a12.32,12.32,0,0,1-.15-24.63c8.93-.11,18.05-.15,27.12-.11a12.32,12.32,0,0,1-.05,24.63h-.06c-8.93,0-17.91,0-26.7.11Z"/></g><g class="cls-8"><path class="cls-9" d="M222.67,358a138.3,138.3,0,0,1-43-6.8,12.31,12.31,0,1,1,7.65-23.4c40.84,13.34,88.17,2,117.79-28.13A12.31,12.31,0,1,1,322.66,317a137.59,137.59,0,0,1-66.72,37.16A144.27,144.27,0,0,1,222.67,358Z"/></g><g class="cls-8"><path class="cls-9" d="M151.23,336.07a12.27,12.27,0,0,1-7-2.2,187.66,187.66,0,0,1-19.92-16.48A12.31,12.31,0,0,1,141,299.25a167.7,167.7,0,0,0,17.29,14.38,12.32,12.32,0,0,1-7,22.44Z"/></g><path class="cls-10" d="M101.35,257.18c-24.26,0-23-28.67-33.54-28.67-10.19,0-14.61,11.71-32.07,9.49a26.51,26.51,0,0,0,30.06,1,35.33,35.33,0,0,0,69.9-7.25V216.63q-.18-2.9-.18-5.82C135.52,233.1,125.62,257.18,101.35,257.18Z"/><rect class="cls-10" x="395.2" y="90.95" width="9.43" height="45.52" rx="2.9" ry="2.9" transform="translate(108.47 410.23) rotate(-61.37)"/><rect class="cls-11" x="394.78" y="84.56" width="9.43" height="45.52" rx="2.9" ry="2.9" transform="translate(113.86 406.53) rotate(-61.37)"/><rect class="cls-10" x="372.46" y="37.5" width="9.43" height="45.52" rx="2.9" ry="2.9" transform="translate(17.43 188.62) rotate(-28.71)"/><rect class="cls-11" x="375.55" y="31.89" width="9.43" height="45.52" rx="2.9" ry="2.9" transform="translate(20.51 189.42) rotate(-28.71)"/><rect class="cls-10" x="96.46" y="221.47" width="9.43" height="45.52" rx="2.9" ry="2.9" transform="translate(-114.17 90.89) rotate(-32.05)"/><rect class="cls-11" x="99.22" y="215.69" width="9.43" height="45.52" rx="2.9" ry="2.9" transform="translate(-110.68 91.48) rotate(-32.05)"/><rect class="cls-10" x="387.88" y="154.01" width="9.43" height="45.52" rx="2.9" ry="2.9" transform="translate(-37.87 185.68) rotate(-25.43)"/><rect class="cls-11" x="391.29" y="148.58" width="9.43" height="45.52" rx="2.9" ry="2.9" transform="translate(-35.21 186.62) rotate(-25.43)"/><rect class="cls-10" x="194.95" y="95.2" width="45.52" height="9.43" rx="2.9" ry="2.9" transform="translate(-21.81 103.15) rotate(-25.43)"/><rect class="cls-11" x="189.52" y="91.79" width="45.52" height="9.43" rx="2.9" ry="2.9" transform="translate(-20.87 100.49) rotate(-25.43)"/><rect class="cls-10" x="291.58" y="49.94" width="45.52" height="9.43" rx="2.9" ry="2.9" transform="translate(28.16 195.7) rotate(-36.1)"/><rect class="cls-11" x="285.61" y="47.59" width="45.52" height="9.43" rx="2.9" ry="2.9" transform="translate(28.39 191.74) rotate(-36.1)"/><g class="cls-6"><path class="cls-7" d="M107,211.42H84.7a12.07,12.07,0,0,1,0-24.14H107a12.07,12.07,0,1,1,0,24.14Z"/></g><circle class="cls-3" cx="144.12" cy="368.79" r="7.66"/><circle class="cls-3" cx="156.2" cy="382.12" r="3.71"/><circle class="cls-10" cx="363.22" cy="149.73" r="7.66"/><circle class="cls-10" cx="391.17" cy="217.88" r="3.71"/><circle class="cls-10" cx="328.52" cy="95.2" r="9.22"/><circle class="cls-10" cx="307.26" cy="85.19" r="4.46"/><circle class="cls-10" cx="120.33" cy="233.1" r="4.46"/><circle class="cls-10" cx="225.34" cy="112.98" r="4.46"/><circle class="cls-10" cx="402.86" cy="39.24" r="4.46"/><circle class="cls-10" cx="254.06" cy="45.5" r="4.46"/><circle class="cls-10" cx="358.4" cy="166.66" r="3.71"/><circle class="cls-3" cx="352.04" cy="281.84" r="7.66"/><circle class="cls-3" cx="341.14" cy="294.04" r="3.71"/><circle class="cls-3" cx="273.09" cy="383.17" r="3.71"/><circle class="cls-3" cx="176.49" cy="312.51" r="3.71"/><path class="cls-4" d="M26.79,84.7c0,.82,0,1.63.07,2.43,1.12,23.23,18.59,39.45,53.2,39.45,29.54,0,47.75-19.6,53.23-40.35,0-.51,0-1,0-1.53a53.27,53.27,0,0,0-106.53,0Z"/><path class="cls-4" d="M80.06,126.58c-34.61,0-52.08-16.22-53.2-39.45a53.25,53.25,0,0,0,106.43-.9C127.81,107,109.6,126.58,80.06,126.58Z"/><path class="cls-12" d="M80.06,126.58c-34.61,0-52.08-16.22-53.2-39.45a53.25,53.25,0,0,0,106.43-.9C127.81,107,109.6,126.58,80.06,126.58Z"/><g class="cls-6"><path class="cls-7" d="M64.36,72.32a12.07,12.07,0,0,1-5.89-22.61c14.52-8.1,31.84-7.86,44.14.6A12.07,12.07,0,1,1,88.92,70.19c-5.45-3.74-13.31-2.4-18.69.6A12,12,0,0,1,64.36,72.32Z"/></g><circle class="cls-10" cx="120.33" cy="75.84" r="4.46"/><circle class="cls-10" cx="51.5" cy="92.28" r="9.22"/><circle class="cls-10" cx="65.49" cy="107.32" r="4.46"/><rect class="cls-10" x="100.72" y="69.7" width="9.43" height="45.52" rx="2.9" ry="2.9" transform="translate(-31.49 62.2) rotate(-28.79)"/><rect class="cls-11" x="103.8" y="64.09" width="9.43" height="45.52" rx="2.9" ry="2.9" transform="translate(-28.41 62.99) rotate(-28.79)"/><rect class="cls-10" x="38.26" y="49.3" width="45.52" height="9.43" rx="2.9" ry="2.9" transform="translate(-17.28 31.43) rotate(-25.43)"/><rect class="cls-11" x="32.84" y="45.89" width="45.52" height="9.43" rx="2.9" ry="2.9" transform="translate(-16.34 28.77) rotate(-25.43)"/><path class="cls-10" d="M229,50.5,194.19,36.87a2.83,2.83,0,0,0-3.6,1.71L189.27,42a2.81,2.81,0,0,0,1.48,3.69l34.79,13.63a2.83,2.83,0,0,0,3.6-1.7l1.32-3.38A2.83,2.83,0,0,0,229,50.5Z"/><path class="cls-11" d="M227.94,44.29,193.15,30.66a2.83,2.83,0,0,0-3.6,1.7l-1.32,3.38a2.84,2.84,0,0,0,1.48,3.7l34.8,13.63a2.82,2.82,0,0,0,3.59-1.71L229.43,48A2.83,2.83,0,0,0,227.94,44.29Z"/><rect class="cls-10" x="64.01" y="99.08" width="9.43" height="45.52" rx="2.9" ry="2.9" transform="matrix(0.26, -0.97, 0.97, 0.26, -66.67, 157.02)"/><rect class="cls-11" x="62.08" y="92.97" width="9.43" height="45.52" rx="2.9" ry="2.9" transform="translate(-62.2 150.61) rotate(-75.14)"/><path class="cls-10" d="M391,249.21a28.48,28.48,0,0,1-50.33-12.83,21.9,21.9,0,0,1-31.34-19.75c0-.65,0-1.27.08-1.9.06-1.3.1-2.59.1-3.9v-71H207.36c-.5,0-1,0-1.51,0l-.48,0-.72-.05-.77-.07-.91-.11c-.29,0-.58-.07-.86-.12-.58-.08-1.14-.18-1.7-.3-.28-.05-.55-.12-.82-.18s-.58-.13-.86-.21l-.74-.2c-.73-.2-1.44-.43-2.15-.68l-.52-.19a34.16,34.16,0,0,1-4.79-2.22l-.86-.5a9828668563690.59,9828668563690.59,0,0,1-1.06-.66l-1-.69-.5-.36-1.09-.82-.57-.47a31.2,31.2,0,0,1-2.49-2.25c-.16-.16-.32-.32-.47-.49-.43-.43-.84-.88-1.23-1.34l-.49-.57-.4-.5-.33-.42q-.82-1.07-1.56-2.19l-.27-.41a34.76,34.76,0,0,1-1.84-3.27l-.27-.56c-.18-.38-.35-.77-.52-1.15l-.24-.59c-.16-.39-.31-.79-.46-1.19-.07-.2-.15-.41-.21-.61-.23-.66-.44-1.34-.63-2l0-.11c0-.12-.07-.25-.1-.38-.15-.59-.29-1.18-.41-1.78l-.12-.61c0-.1,0-.21,0-.31s-.08-.45-.11-.67c-.09-.57-.17-1.15-.22-1.73l-.06-.59c0-.24,0-.48,0-.73s0-.73-.05-1.1,0-.74,0-1.11V85.75c0,15,15.64,37,30.65,37l112.42,1.48a8.55,8.55,0,0,1,8.44,8.55V179c.63,31.55-1.43,46.76,13.13,45.43,21.89-2,16.39,17.83,26.38,24.06C370.76,252.87,387.46,254.71,391,249.21Z"/><rect class="cls-10" x="325.26" y="116.4" width="45.52" height="9.43" rx="2.9" ry="2.9" transform="translate(74.94 368.54) rotate(-61.37)"/><rect class="cls-11" x="318.87" y="116.83" width="45.52" height="9.43" rx="2.9" ry="2.9" transform="translate(71.24 363.14) rotate(-61.37)"/><rect class="cls-10" x="268.38" y="83.12" width="9.43" height="45.52" rx="2.9" ry="2.9" transform="translate(-14.57 161.03) rotate(-32.05)"/><rect class="cls-11" x="271.14" y="77.34" width="9.43" height="45.52" rx="2.9" ry="2.9" transform="translate(-11.08 161.62) rotate(-32.05)"/><rect class="cls-10" x="337.88" y="182.7" width="9.43" height="45.52" rx="2.9" ry="2.9" transform="translate(56.15 483.91) rotate(-75.14)"/><rect class="cls-11" x="335.95" y="176.59" width="9.43" height="45.52" rx="2.9" ry="2.9" transform="matrix(0.26, -0.97, 0.97, 0.26, 60.62, 477.5)"/><rect class="cls-10" x="102.68" y="173.39" width="9.43" height="45.52" rx="2.9" ry="2.9" transform="translate(-116.23 196.42) rotate(-61.37)"/><rect class="cls-11" x="102.26" y="167" width="9.43" height="45.52" rx="2.9" ry="2.9" transform="translate(-110.84 192.72) rotate(-61.37)"/><rect class="cls-10" x="40.65" y="188.2" width="9.43" height="45.52" rx="2.9" ry="2.9" transform="translate(-170.38 206.99) rotate(-76.81)"/><rect class="cls-11" x="38.54" y="182.15" width="9.43" height="45.52" rx="2.9" ry="2.9" transform="translate(-166.12 200.27) rotate(-76.81)"/><g class="cls-6"><path class="cls-7" d="M53.42,211.42H50.13a12.07,12.07,0,0,1,0-24.14h3.29a12.07,12.07,0,0,1,0,24.14Z"/></g></g></g></svg>