<?xml version="1.0" encoding="utf-8"?>
<!-- Generator: Adobe Illustrator 22.1.0, SVG Export Plug-In . SVG Version: 6.00 Build 0)  -->
<svg version="1.1" id="Calque_1" xmlns="http://www.w3.org/2000/svg" xmlns:xlink="http://www.w3.org/1999/xlink" x="0px" y="0px"
	 viewBox="0 0 280 89.8" style="enable-background:new 0 0 280 89.8;" xml:space="preserve">
<style type="text/css">
	.st0{fill:#007DED;}
	.st1{fill:#FFF5FB;}
	.st2{opacity:0.3;fill:#D1D1D1;}
	.st3{fill:#ECEDEE;}
	.st4{fill:#FFFFFF;}
	.st5{fill:#F15A24;}
	.st6{opacity:0.1;}
	.st7{fill:#F7931E;}
	.st8{filter:url(#Adobe_OpacityMaskFilter);}
	.st9{mask:url(#SVGID_1_);}
	.st10{opacity:0.7;}
	.st11{filter:url(#Adobe_OpacityMaskFilter_1_);}
	.st12{mask:url(#SVGID_2_);}
	.st13{fill:none;}
	.st14{fill:#E3A078;}
	.st15{opacity:0.5;fill:#E3A078;}
	.st16{fill:#903B0D;}
	.st17{opacity:0.5;fill:#E54595;}
	.st18{opacity:0.5;}
	.st19{fill:#F2C0DC;}
	.st20{fill:none;stroke:#FFFFFF;stroke-width:24.6413;stroke-linecap:round;stroke-miterlimit:10;}
	.st21{opacity:0.25;}
	.st22{opacity:0.3;clip-path:url(#SVGID_4_);fill:#7B7B7B;}
	.st23{opacity:0.3;fill:#7B7B7B;}
	.st24{fill:#FFE9F6;}
	.st25{clip-path:url(#SVGID_6_);fill:#903B0D;}
	.st26{opacity:0.5;clip-path:url(#SVGID_6_);fill:#903B0D;}
	.st27{fill:#C1A3A3;}
	.st28{opacity:0.2;fill:#251826;}
	.st29{fill:#2C3E50;}
	.st30{opacity:0.3;clip-path:url(#SVGID_8_);fill:#7B7B7B;}
	.st31{clip-path:url(#SVGID_10_);fill:#903B0D;}
	.st32{opacity:0.5;clip-path:url(#SVGID_10_);fill:#903B0D;}
	.st33{opacity:0.3;}
	.st34{fill:url(#SVGID_11_);}
	.st35{fill:url(#SVGID_12_);}
	.st36{fill:url(#SVGID_13_);}
	.st37{fill:none;stroke:#FFFFFF;stroke-width:24.625;stroke-linecap:round;stroke-miterlimit:10;}
	.st38{opacity:0.5;fill:#903B0D;}
</style>
<g>
	<g>
		<g>
			<path class="st4" d="M229.6,10.4c-2.6,0-4.8,2.1-4.8,4.8V23c0,2.6,2.1,4.8,4.8,4.8H251v15.5c0,10.7-8.3,19.4-18.5,19.4
				S214,53.9,214,43.2c0-2.6-2.1-4.8-4.8-4.8h-7.9c-2.6,0-4.8,2.1-4.8,4.8c0,20.5,16.1,37.1,36,37.1s36-16.7,36-37.1V10.4H229.6z"/>
		</g>
		<g>
			<circle class="st4" cx="205.2" cy="19.1" r="8.7"/>
		</g>
	</g>
	<g>
		<path class="st4" d="M12,75.2V49.5c0-0.7,0.6-1.3,1.3-1.3h6c0.7,0,1.3,0.6,1.3,1.3v25.7c0,0.7-0.6,1.3-1.3,1.3h-6
			C12.6,76.5,12,76,12,75.2z"/>
		<path class="st4" d="M25.2,75.2V49.5c0-0.7,0.6-1.3,1.3-1.3h15.9c5.9,0,8.4,3.9,8.4,7.2c0,3.5-2.1,5.9-4.8,6.5
			c3.1,0.5,5.4,3.3,5.4,6.9c0,4-2.7,7.7-8.4,7.7H26.5C25.8,76.5,25.2,76,25.2,75.2z M42.1,57c0-1-0.8-1.6-1.7-1.6h-6.6v3.3h6.6
			C41.3,58.7,42.1,58,42.1,57z M42.6,67.6c0-1-0.8-1.8-2-1.8h-6.9v3.6h6.9C41.9,69.4,42.6,68.7,42.6,67.6z"/>
		<path class="st4" d="M60.5,75.2V55.7h-6.3c-0.7,0-1.3-0.6-1.3-1.3v-4.9c0-0.7,0.6-1.3,1.3-1.3h21.2c0.7,0,1.3,0.6,1.3,1.3v4.9
			c0,0.7-0.6,1.3-1.3,1.3H69v19.6c0,0.7-0.6,1.3-1.3,1.3h-6C61,76.5,60.5,76,60.5,75.2z"/>
		<path class="st4" d="M95.7,75.6L95,73.2H84.8l-0.7,2.4c-0.2,0.5-0.7,0.9-1.2,0.9h-6.9c-0.9,0-1.5-0.9-1.2-1.8L84.2,49
			c0.2-0.5,0.7-0.9,1.2-0.9h9c0.5,0,1,0.3,1.2,0.9l9.5,25.7c0.3,0.8-0.3,1.8-1.2,1.8H97C96.4,76.5,95.9,76.2,95.7,75.6z M89.9,56.6
			l-2.8,9.1h5.6L89.9,56.6z"/>
		<path class="st4" d="M110.8,75.2V55.7h-6.3c-0.7,0-1.3-0.6-1.3-1.3v-4.9c0-0.7,0.6-1.3,1.3-1.3h21.2c0.7,0,1.3,0.6,1.3,1.3v4.9
			c0,0.7-0.6,1.3-1.3,1.3h-6.3v19.6c0,0.7-0.6,1.3-1.3,1.3h-6C111.4,76.5,110.8,76,110.8,75.2z"/>
		<path class="st4" d="M130,75.2V49.5c0-0.7,0.6-1.3,1.3-1.3h18.9c0.7,0,1.3,0.6,1.3,1.3v4.9c0,0.7-0.6,1.3-1.3,1.3h-11.6v2.8h11.3
			c0.7,0,1.3,0.6,1.3,1.3v4.9c0,0.7-0.6,1.3-1.3,1.3h-11.3v3.1h11.6c0.7,0,1.3,0.6,1.3,1.3v4.9c0,0.7-0.6,1.3-1.3,1.3h-18.9
			C130.6,76.5,130,76,130,75.2z"/>
		<path class="st4" d="M174,76l-10.1-13.8v13.1c0,0.7-0.6,1.3-1.3,1.3h-6c-0.7,0-1.3-0.6-1.3-1.3V49.5c0-0.7,0.6-1.3,1.3-1.3h6.9
			c0.4,0,0.8,0.2,1,0.5l9.5,12.9V49.5c0-0.7,0.6-1.3,1.3-1.3h6c0.7,0,1.3,0.6,1.3,1.3v25.7c0,0.7-0.6,1.3-1.3,1.3h-6.3
			C174.6,76.5,174.3,76.3,174,76z"/>
	</g>
	<g>
		<path class="st4" d="M12.3,41l2.9-5.5c0.3-0.6,1.1-0.9,1.7-0.5c0.9,0.5,2,0.8,3.2,0.8c2.2,0,3.7-1.4,3.7-3.7v-20
			c0-0.7,0.6-1.3,1.3-1.3h7.5c0.7,0,1.3,0.6,1.3,1.3v20.1c0,8.5-5.1,12.5-12.9,12.5c-2.8,0-5.8-0.5-8.3-2C12.2,42.4,12,41.6,12.3,41
			z"/>
		<path class="st4" d="M37.6,27.5c0-10.2,7.9-17.2,18.2-17.2c10.3,0,18.2,7,18.2,17.2c0,10.2-7.9,17.2-18.2,17.2
			C45.5,44.7,37.6,37.7,37.6,27.5z M63.8,27.5c0-4.6-3.1-8.3-8-8.3c-4.8,0-8,3.7-8,8.3c0,4.6,3.1,8.3,8,8.3
			C60.7,35.8,63.8,32.1,63.8,27.5z"/>
		<path class="st4" d="M99.7,42.8V31.4H87.7v11.4c0,0.7-0.6,1.3-1.3,1.3h-7.5c-0.7,0-1.3-0.6-1.3-1.3V12.1c0-0.7,0.6-1.3,1.3-1.3
			h7.5c0.7,0,1.3,0.6,1.3,1.3v10.5h11.9V12.1c0-0.7,0.6-1.3,1.3-1.3h7.5c0.7,0,1.3,0.6,1.3,1.3v30.7c0,0.7-0.6,1.3-1.3,1.3H101
			C100.3,44.1,99.7,43.6,99.7,42.8z"/>
		<path class="st4" d="M137.1,43.2l-0.9-3h-12l-0.9,3c-0.2,0.5-0.7,0.9-1.2,0.9h-8.6c-0.9,0-1.5-0.9-1.2-1.8l11.3-30.7
			c0.2-0.5,0.7-0.9,1.2-0.9h10.9c0.5,0,1,0.3,1.2,0.9l11.3,30.7c0.3,0.8-0.3,1.8-1.2,1.8h-8.6C137.8,44.1,137.3,43.8,137.1,43.2z
			 M130.2,20.7l-3.3,10.7h6.6L130.2,20.7z"/>
		<path class="st4" d="M172.7,43.6l-11.9-16.4v15.6c0,0.7-0.6,1.3-1.3,1.3H152c-0.7,0-1.3-0.6-1.3-1.3V12.1c0-0.7,0.6-1.3,1.3-1.3
			h8.4c0.4,0,0.8,0.2,1,0.5l11.2,15.3V12.1c0-0.7,0.6-1.3,1.3-1.3h7.5c0.7,0,1.3,0.6,1.3,1.3v30.7c0,0.7-0.6,1.3-1.3,1.3h-7.7
			C173.3,44.1,172.9,43.9,172.7,43.6z"/>
	</g>
</g>
</svg>
