<?xml version="1.0" standalone="no"?>
<!DOCTYPE svg PUBLIC "-//W3C//DTD SVG 20010904//EN"
 "http://www.w3.org/TR/2001/REC-SVG-20010904/DTD/svg10.dtd">
<svg version="1.0" xmlns="http://www.w3.org/2000/svg"
 width="700.000000pt" height="700.000000pt" viewBox="0 0 700.000000 700.000000"
 preserveAspectRatio="xMidYMid meet">
<metadata>
Created by potrace 1.11, written by Peter Selinger 2001-2013
</metadata>
<g transform="translate(0.000000,700.000000) scale(0.100000,-0.100000)"
fill="#000000" stroke="none">
<path d="M3267 6484 c-1 -1 -31 -4 -66 -8 -123 -11 -249 -93 -311 -201 -52
-92 -54 -110 -55 -530 -2 -414 2 -460 46 -548 53 -103 184 -197 299 -214 30
-5 474 -8 986 -8 l932 0 -1 -716 c0 -393 -4 -747 -8 -785 -15 -124 -19 -148
-35 -219 -16 -72 -49 -185 -64 -220 -5 -11 -21 -49 -36 -85 -156 -365 -449
-671 -799 -836 -135 -63 -289 -111 -410 -129 -16 -2 -50 -7 -75 -11 -64 -9
-243 -11 -320 -2 -193 21 -358 68 -525 150 -81 39 -89 44 -160 87 -145 90
-337 271 -435 411 -13 19 -27 37 -30 40 -9 7 -93 146 -119 198 -36 70 -90 211
-117 302 -39 138 -57 259 -69 476 -5 97 -21 153 -60 219 -30 50 -98 116 -150
145 -91 51 -112 53 -540 53 -277 0 -414 -4 -445 -12 -138 -36 -237 -127 -290
-266 -20 -53 -22 -77 -21 -200 1 -77 3 -158 5 -180 2 -22 7 -71 10 -110 4 -38
11 -92 16 -120 5 -27 12 -70 15 -95 33 -237 144 -584 276 -857 306 -637 843
-1180 1454 -1472 50 -24 101 -49 115 -56 34 -18 291 -113 337 -125 21 -5 81
-21 133 -35 81 -21 147 -35 280 -59 214 -37 640 -43 850 -11 14 2 45 7 70 10
25 4 68 11 95 16 28 6 61 12 75 15 118 22 417 114 504 156 22 10 43 18 48 18
22 0 400 198 443 232 6 5 42 29 80 55 465 310 879 800 1112 1318 106 235 207
553 239 750 3 21 7 47 10 59 12 65 34 245 40 336 4 58 7 768 8 1579 1 1228 -1
1474 -12 1479 -11 4 -3320 10 -3325 6z"/>
<path d="M1039 6476 c-2 -2 -22 -6 -44 -9 -110 -15 -265 -93 -364 -184 -159
-145 -244 -340 -243 -558 0 -155 38 -279 125 -411 230 -352 705 -443 1056
-201 130 89 228 220 283 377 27 78 33 128 32 265 -1 102 -5 132 -29 200 -57
170 -154 299 -296 396 -81 56 -147 84 -274 116 -25 7 -240 14 -246 9z"/>
</g>
</svg>
